<?xml version="1.0" encoding="utf-8"?>
<!-- Generator: Adobe Illustrator 27.5.0, SVG Export Plug-In . SVG Version: 6.00 Build 0)  -->
<svg version="1.1" xmlns="http://www.w3.org/2000/svg" xmlns:xlink="http://www.w3.org/1999/xlink" x="0px" y="0px"
	 viewBox="0 0 500 500" style="enable-background:new 0 0 500 500;" xml:space="preserve">
<g id="BACKGROUND">
</g>
<g id="OBJECTS">
	<g>
		<g>
			<path style="fill:#FFD0CC;" d="M433.434,93.687c-3.889-4.797-8.646-9.247-13.786-12.343c-3.753-2.261-8.202-3.465-12.356-4.769
				c-6.163-1.933-12.425-3.549-18.75-4.856c-11.841-2.446-24.125-4.152-36.238-4.035c-2.604,0.025-5.267,0.131-7.937,0.357
				c-6.988-0.072-14.029,0.498-20.98,0.966c-8.423,0.566-17.044,0.952-25.327,2.668c-7.531,1.56-14.763,4.895-21.748,8.031
				c-3.912,1.756-7.692,3.698-11.284,5.957c-0.42-0.216-0.848-0.413-1.281-0.599c-5.554-2.668-11.777-3.554-17.892-2.597
				c-3.916,0.034-7.842,0.449-11.5,1.724c-4.932,1.719-9.552,4.768-12.298,9.314c-3.441,5.693-3.391,12.336-4.289,18.71
				c-0.873,6.199,7.566,11.308,11.06,4.663c4.073-7.746,10.885-9.506,18.148-11.155c-2.394,5.663-3.422,11.825-2.542,17.813
				c-2.293,0.685-4.436,1.687-6.512,3.515c-3.626,3.192-6.473,7.299-8.261,11.772c-2.109,5.278-2.862,11.643-1.622,17.396
				c-0.001,0.007-0.002,0.015-0.002,0.022c-1.057,1.129-1.957,2.382-2.628,3.66c-7.06,13.457,1.807,26.326,12.447,34.336
				c4.622,3.48,10.659,9.205,16.513,10.543c0.274,0.242,0.553,0.474,0.825,0.723c3.664,3.357,10.16,2.185,11.437-3.02
				c2.231-9.09-0.238-17.204-5.302-23.84c7.486,1.266,15.029,0.895,22.526-0.22c-0.029,0.064-0.062,0.126-0.09,0.19
				c-2.482,5.509-6.061,17.037-0.189,21.568c3.371,2.601,7.577,1.614,11.411,0.795c5.051-1.078,10.032-2.437,15.096-3.46
				c9.026-1.824,18.4-4.543,26.725-8.517c7.269-3.471,13.007-8.684,17.186-14.965c0.944-0.158,1.883-0.35,2.812-0.605
				c2.002-0.551,4.01-1.082,6.014-1.627c-1.95,2.149-3.858,4.342-5.806,6.469c-3.989,4.356-8.707,8.677-11.283,14.056
				c-1.211,2.528-1.9,6.128,0,8.595c0.956,1.241,1.752,2.152,3.055,3.055c2.45,1.697,6.121,1.447,8.595,0
				c0.12-0.07,0.236-0.148,0.355-0.22c2.834-0.699,5.67-1.429,8.498-2.212c13.752-0.17,27.92-5.355,40.253-10.878
				c12.301-5.509,25.047-12.874,31.712-25.062c2.775-5.075,4.532-10.583,5.394-16.27c1.126-2.975,1.872-6.001,2.261-9.041
				C448.699,123.581,444.323,106.1,433.434,93.687z"/>
			<g>
				<path style="fill:#D38F8C;" d="M466.074,83.499c-1.639-2.435-4.189-3.903-6.958-4.435c0.439-1.835,1.289-3.542,2.218-5.319
					c0.839-1.605-1.06-2.865-2.377-1.834c-2.124,1.662-3.271,4.277-3.695,7.011c-0.819,0.093-1.631,0.256-2.418,0.504
					c-4.232,1.335-7.623,4.717-9.203,8.833c-0.106,0.276-0.2,0.553-0.285,0.831c-1.808,0.692-3.491,1.864-4.878,3.36
					c-1.091,1.177-1.997,2.446-2.754,3.778c0.48,0.669,0.866,1.41,1.131,2.193c0.14,0.228,0.255,0.473,0.377,0.713
					c1.352-2.62,3.214-4.941,5.56-6.323c-0.039,3.14,0.945,6.282,2.373,9.144c2.201,4.411,7.432,4.381,9.851,0.139
					c2.257-3.957,0.724-9.494-2.921-12.034c-1.336-0.931-2.749-1.431-4.166-1.592c0.607-1.145,1.418-2.186,2.361-3.05
					c1.35-1.237,3.051-2.111,4.849-2.456c0.044,0.489,0.105,0.97,0.19,1.434c0.71,3.909,3.635,9.422,8.331,8.92
					C468.679,92.78,468.209,86.671,466.074,83.499z M451.848,95.188c0.544,1.288,0.644,2.734,0.171,4.057
					c-0.46,1.288-1.836,3.087-2.963,1.427c-1.506-2.218-2.518-5.829-2.269-8.492c0.014-0.153,0.045-0.303,0.067-0.455
					C448.974,91.874,450.963,93.092,451.848,95.188z M463.694,88.815c-0.709,2.018-3.007-0.991-3.494-1.849
					c-0.676-1.188-1.102-2.528-1.287-3.886c1.237,0.322,2.392,0.928,3.27,1.871C462.954,85.779,464.12,87.603,463.694,88.815z"/>
				<path style="fill:#D38F8C;" d="M354.19,174.239c3.45-7.161,4.961-15.707,2.165-23.305c-0.3-0.816-1.481-0.699-1.529,0.207
					c-0.422,8.016-0.875,16.173-5.128,23.252c-3.512,5.846-9.952,9.588-15.95,12.506c-7.67,3.731-15.864,5.903-24.017,8.197
					c0.014-0.053,0.039-0.102,0.046-0.157c1.39-11.625-8.868-20.228-19.65-20.9c1.585-2.452,3.451-4.799,5.616-7.04
					c3.383-3.503,7.236-6.469,11.425-8.942c4.301-2.54,9.154-3.81,13.457-6.25c0.744-0.422,0.396-1.557-0.427-1.575
					c-10.439-0.232-21.76,8.526-28.427,15.822c-2.807,3.072-5.718,6.895-8,11.068c-8.314,1.136-16.515,1.954-24.923,1.106
					c-2.196-0.221-4.603-0.534-7.051-0.994c-0.003,0-0.005-0.002-0.008-0.002c-0.001,0-0.001,0-0.001,0
					c-6.028-1.135-12.307-3.192-16.337-7.179c-10.159-10.052-9.391-29.912,0.258-40.045c0.505-0.53-0.247-1.25-0.792-0.792
					c-7.887,6.616-10.498,17.748-8.614,27.855c-4.994,6.401-6.646,14.511-4.358,22.443c2.652,9.196,10.297,15.65,18.37,20.146
					c4.819,2.684,9.898,4.902,14.893,7.232c2.074,0.968,5.646,3.577,7.793,1.368c0.284-0.292,0.507-0.64,0.683-1.025
					c0.055-0.019,0.11-0.028,0.165-0.059c4.253-2.358,5.397-9.865,5.496-14.23c0.083-3.709-0.809-8.267-3.22-11.384
					c5.386,0.071,10.797-0.379,16.078-1.281c-2.582,5.803-3.7,12.061-1.558,17.816c0.046,0.122,0.119,0.218,0.187,0.318
					c0.74,1.497,2.029,2.761,3.543,3.342c3.939,1.512,9.752,1.192,14.091-0.499c13.84-1.755,28.505-6.005,40.53-12.681
					C345.234,185.116,351.027,180.804,354.19,174.239z M226.956,159.901c1.1,3.979,2.914,7.709,5.406,10.821
					c3.042,3.799,7.818,6.166,12.801,7.719c-5.438,2.22-9.887,7.229-10.874,12.923c0,0.001,0,0.001,0,0.002
					C225.047,183.315,221.572,171.397,226.956,159.901z M266.152,192.948c0.017,3.448-0.778,6.648-2.046,9.72
					c-0.199-1.627-0.64-3.205-1.037-4.265c-1.546-4.119-4.563-7.225-7.958-9.902c-1.356-1.069-3.284,0.714-1.95,1.95
					c2.299,2.13,4.695,4.41,6.178,7.207c0.532,1.003,2.227,4.643,1.584,6.01c-1.162,2.473-3.232,0.569-4.715-0.124
					c-6.226-2.911-12.638-5.634-18.372-9.464c-0.272-0.182-0.536-0.371-0.802-0.559c0.405-0.193,0.72-0.571,0.812-1.177
					c0.536-3.497,2.301-6.376,5.014-8.637c2.175-1.814,4.763-2.804,7.281-3.967c1.746,0.378,3.456,0.684,5.061,0.934
					c2.081,0.324,4.187,0.538,6.301,0.687C264.021,185.137,266.128,187.997,266.152,192.948z M290.074,199.297
					c-1.699,0.001-3.573,0.097-5.086-0.633c1.66-2.325,3.358-4.827,5.338-6.885c1.798-1.868,4.456-3.181,5.919-5.268
					c0.404-0.576-0.133-1.435-0.806-1.405c-2.821,0.123-5.668,2.833-7.516,4.795c-2.17,2.304-3.65,4.651-4.37,7.651
					c-0.03-0.036-0.057-0.077-0.086-0.114c0.002-7.67,1.703-14.608,5.158-20.878c4.408,1.521,9.48,2.206,12.98,5.312
					c4.13,3.666,3.703,9.1,5.85,13.695c0.028,0.061,0.069,0.094,0.102,0.146c-3.027,0.866-6.041,1.772-9.014,2.8
					C295.719,198.748,292.926,199.296,290.074,199.297z"/>
				<path style="fill:#D38F8C;" d="M264.739,134.411c-0.714,2.192-1.494,4.355-2.355,6.489c-0.428,0.592-0.852,1.192-1.266,1.807
					c-2.167,3.217-3.905,7.162-1.025,10.581c2.757,3.273,7.467,3.114,10.714,0.693c2.534-1.889,3.767-3.579,7.383-2.668
					c2.568,0.648,4.919,1.771,7.621,1.432c4.134-0.519,6.5-4.058,5.965-8.092c-0.605-4.556-4.813-7.382-8.118-10.074
					c-1.992-2.299-4.088-4.578-6.202-6.602c-2.062-1.974-5.082-3.333-7.892-2.096C266.236,127.344,265.741,131.33,264.739,134.411z"
					/>
				<path style="fill:#D38F8C;" d="M425.896,177.874c-6.593,3.918-12.82,8.053-19.866,11.186
					c-6.443,2.865-13.128,5.154-19.888,7.142c-1.65,0.485-3.307,0.942-4.967,1.392c0.728-4.993-1.473-11.091-4.226-14.737
					c-2.574-3.408-7.273-8.748-12.075-10.415c0.064-0.046,0.125-0.097,0.189-0.143c4.094-2.911,9.303-5.171,14.543-5.888
					c0.819,0.58,1.989,0.46,2.641-0.227c5.249-0.172,10.346,1.371,14.187,5.551c0.618,0.673,1.998-0.031,1.617-0.941
					c-2.736-6.534-8.843-8.718-15.439-8.522c-0.255-3.92-0.741-7.553,0.111-11.695c0.789-3.834,2.02-7.676,3.85-11.141
					c4.487-8.497,11.815-10.916,20.416-13.72c0.944-0.308,0.842-1.88-0.245-1.813c-9.927,0.61-17.976,4.205-23.344,12.856
					c-3.985,6.422-8.244,17.988-5.715,26.063c-5.277,0.993-10.415,3.174-13.983,5.582c-6.412,4.326-11.415,10.421-15.237,17.092
					c-2.575,4.495-8.05,12.764-3.742,17.545c0.039,0.044,0.083,0.065,0.124,0.101c0.257,0.769,0.69,1.399,1.257,1.919
					c0.024,0.061,0.036,0.121,0.064,0.182c0.14,0.303,0.411,0.409,0.685,0.39c7.149,4.527,28.923-3.232,34.143-4.651
					c15.969-4.338,33.865-9.883,46.677-20.804C428.958,179.085,427.307,177.036,425.896,177.874z M348.527,203.3
					c1.796-2.758,5.324-5.296,7.48-7.283c2.526-2.328,6.243-4.535,7.883-7.571c0.41-0.759-0.272-1.77-1.155-1.503
					c-4.367,1.319-8.418,6.425-11.565,9.574c-1.109,1.11-2.897,2.572-4.091,4.202c1.565-9.927,7.588-19.841,15.421-26.417
					c4.315,2.867,8.547,6.659,11.399,10.908c1.778,2.647,2.693,5.587,2.961,8.753c0.145,1.707,0.045,3.2,0.303,4.708
					c-2.093,0.558-4.186,1.117-6.27,1.71C366.972,201.498,353.746,206.356,348.527,203.3z"/>
				<path style="fill:#D38F8C;" d="M290.398,89.87c3.989-4.279,10.882-7.961,16.548-4.875c5.123,2.79,6.624,7.075,9.763,11.481
					c0.683,0.959,2.433,0.724,2.383-0.645c-0.163-4.437-3.601-8.995-7.681-11.992c5.534-2.182,11.514-2.325,16.367,1.898
					c4.705,4.096,6.968,12.126,5.14,18.073c-2.603,8.469-10.679,15.698-11.627,24.839c-3.09-3.062-3.337-8.858-4.075-12.931
					c-0.751-4.152-2.096-8.174-4.732-11.528c-4.052-5.155-11.84-8.568-17.71-4.344c-0.822,0.592-0.363,1.997,0.72,1.707
					c12.272-3.282,16.954,7.608,18.602,17.578c0.861,5.205,2.685,15.043,9.9,14.408c1.653-0.146,2.211-2.505,0.532-3.061
					c1.398-3.229,2.096-6.82,3.561-10.04c1.541-3.388,3.547-6.466,5.422-9.67c3.569-6.097,4.448-11.752,2.28-18.595
					c-3.54-11.177-17.153-17.704-26.976-9.985c-1.156-0.621-2.32-1.101-3.438-1.401c-5.629-1.512-14.273,2.881-16.371,8.271
					C288.697,89.849,289.856,90.451,290.398,89.87z"/>
				<path style="fill:#D38F8C;" d="M224.204,123.63c0.672,0.37,1.576,0.295,2.069-0.55c2.213-3.792,3.877-7.309,7.367-10.195
					c3.247-2.686,6.88-3.952,10.661-5.393c-1.505,5.148-2.04,10.795-2.186,16.195c-0.061,2.262,3.453,2.26,3.514,0
					c0.346-12.824,2.385-25.914,15.145-32.119c0.827-0.402,0.247-1.759-0.625-1.484c-7.994,2.523-12.499,8.122-15.014,14.885
					c-8.168-0.117-18.023,7.117-21.095,14.913c-6.164-7.629-6.255-17.477-1.236-26.117c4.206-7.24,11.161-9.599,18.718-9.998
					c-5.613,2.693-10.412,6.964-12.715,11.876c-0.499,1.064,0.698,1.998,1.607,1.24c5.549-4.635,10.044-10.03,17.356-11.983
					c7.369-1.968,13.536,0.164,19.743,4.116c0.681,0.433,1.624-0.451,1.141-1.141c-5.201-7.436-14.472-8.448-22.915-5.777
					c-21.967-8.71-42.251,27.949-22.65,41.312C223.475,123.674,223.862,123.722,224.204,123.63z"/>
			</g>
			<g>
				<path style="fill:#A56262;" d="M271.009,138.665c-0.388-0.516-1.336-0.563-1.504,0.197c-0.302,1.369-0.236,2.802-0.681,4.137
					c-0.51,1.532-1.542,2.822-2.819,3.795c-1.34,1.021-0.185,3.235,1.363,2.332C270.457,147.324,273.532,142.023,271.009,138.665z"
					/>
				<path style="fill:#A56262;" d="M280.412,141.276c-1.184-0.844-1.583-2.441-2.552-3.513c-0.56-0.619-1.613-0.122-1.614,0.668
					c-0.001,1.609,0.608,3.632,1.79,4.767c1.409,1.353,3.603,2.532,5.433,3.167c0.459,0.159,0.988-0.03,1.325-0.35
					c0.187-0.178,0.284-0.352,0.35-0.601c0.121-0.452,0.007-1.001-0.35-1.325C283.474,142.895,281.841,142.295,280.412,141.276z"/>
				<path style="fill:#A56262;" d="M282.881,157.085c-1.701,0.266-2.887,1.912-4.389,2.711c-2.155,1.146-4.476,1.434-6.655,0.188
					c-0.547-0.313-1.172,0.445-0.687,0.891c1.768,1.625,4.18,1.998,6.483,1.388c2.088-0.554,5.352-2.228,6-4.425
					C283.778,157.349,283.319,157.016,282.881,157.085z"/>
				<path style="fill:#A56262;" d="M300.221,135.685c-9.05,1.356-17.504,19.242-9.776,25.916c0.759,0.655,2.161,0.049,1.803-1.049
					c-1.35-4.141-1.564-7.913-0.188-12.079c1.343-4.064,4.394-9.611,8.616-11.136C301.73,136.955,301.3,135.523,300.221,135.685z"/>
				<path style="fill:#A56262;" d="M256.104,126.239c3.142,0.289,6.374-2.698,6.509-5.83c0.028-0.658-0.761-0.855-1.196-0.495
					c-1.365,1.131-1.952,2.962-3.652,3.767c-2.241,1.06-3.697-0.764-3.424-2.866c0.105-0.805-1.063-0.971-1.43-0.387
					C251.336,122.935,253.322,125.983,256.104,126.239z"/>
				<path style="fill:#A56262;" d="M292.186,123.265c2.999-0.541,5.025-3.685,5.195-6.578c0.054-0.918-1.147-1.069-1.595-0.432
					c-1.098,1.561-1.578,3.746-3.436,4.64c-1.751,0.842-3.866-0.058-4.936-1.567c-0.454-0.641-1.724-0.273-1.382,0.583
					C287.014,122.37,289.548,123.741,292.186,123.265z"/>
				<path style="fill:#A56262;" d="M252.041,143.602c-1.286,0.132-1.494,1.729-0.299,2.206c2.975,1.188,5.738,4.664,7.334,7.351
					c0.959,1.615,1.564,3.237,1.46,5.134c-0.07,1.276-0.368,2.129-0.157,3.404c0.138,0.833,1.253,1.18,1.911,0.777
					C269.425,158.119,258.327,142.957,252.041,143.602z"/>
			</g>
		</g>
		<g>
			<g>
				<g>
					<path style="fill:#A5D884;" d="M97.806,447.102c2.233-8.03,1.613-16.725,4.417-24.566c1.274-3.562,4.557-6.333,4.205-10.33
						c-0.349-3.962-4.053-6.979-8.045-6.117c-0.085,0.018-0.168,0.05-0.253,0.071c-1.703-0.096-3.225,0.12-4.591,0.587
						c-10.178-0.844-16.01,13.457-18.102,21.624c-1.368,5.338-2.241,11.507-0.145,16.792c2.755,6.946,11.091,5.33,17.143,5.346
						C94.603,450.513,97.161,449.421,97.806,447.102z"/>
					<path style="fill:#A5D884;" d="M70.815,411.653c-0.371,0.287-0.746,0.555-1.124,0.813c-0.723-0.408-1.659-0.488-2.533,0.064
						c-0.605,0.382-1.219,0.73-1.84,1.056c0.314-0.786-0.623-1.737-1.442-1.318c-5.928,3.029-11.504,5.994-18.105,7.346
						c-1.894,0.388-2.201,3.082-0.343,3.783c4.124,1.556,10.505-0.88,14.58-1.928c2.891-0.743,5.487-1.751,7.939-3.08
						c1.938-0.944,3.753-2.148,5.407-3.642C75.354,413.11,72.847,410.078,70.815,411.653z"/>
					<path style="fill:#A5D884;" d="M175.263,430.095c-0.059-0.115-0.122-0.229-0.184-0.343c-0.322-1.761-0.895-3.481-1.777-5.106
						c-3.528-6.5-11.497-7.281-17.199-3.294c-0.535,0.374-0.931,0.81-1.207,1.28c-0.11,0.068-0.219,0.124-0.329,0.201
						c-0.97,0.675-1.204,2.177-0.738,3.201c0.614,1.348,1.697,2.4,2.341,3.711c0.852,1.737,0.9,4.046,0.885,5.943
						c-0.031,3.865-2.108,7.864-1.531,11.647c1.301,8.533,11.386,8.818,16.437,3.482
						C177.194,445.287,178.777,436.888,175.263,430.095z"/>
				</g>
				<g>
					<path style="fill:#717C22;" d="M158.989,404.819c-5.154,2.985-10.435,5.806-15.881,8.211
						c-6.193,0.648-11.101,1.739-16.672,4.971c-0.509,0.296-0.982,0.634-1.419,1.003c-1.301,0.274-2.61,0.524-3.932,0.727
						c-3.473,0.534-6.958,0.777-10.443,0.733c-8.975-1.933-17.579-4.993-25.5-10.308c-2.984-2.002-7.014-2.006-9.841,0.312
						c-2.531,2.075-4.072,6.62-2.216,9.615c8.208,13.245,24.564,17.136,39.531,17.152c7.028,1.062,14.17,1.387,21.237,0.96
						c8.909-0.539,18.422-0.984,25.917-6.43c3.819-2.775,6.78-6.75,8.079-11.118c1.165-1.403,2.215-2.964,3.132-4.714
						C174.472,409.271,165.32,401.152,158.989,404.819z"/>
					<path style="fill:#BBE2A1;" d="M149.986,428.097c-0.387-2.164-1.088-4.276-2.168-6.266c-4.236-7.804-13.917-8.874-20.771-3.978
						c-0.605,0.432-1.057,0.933-1.382,1.474c-0.157,0.098-0.315,0.201-0.473,0.315c-1.151,0.824-1.474,2.625-0.891,3.865
						c0.77,1.638,2.049,2.909,2.828,4.5c0.968,1.976,1.059,4.534,1.07,6.698c0.013,2.539-0.261,5.117-0.866,7.582
						c-0.521,2.123-1.245,4.133-1.045,6.353c0.953,10.543,13.462,11.479,19.752,4.981
						C152.699,446.742,154.35,436.495,149.986,428.097z"/>
					<path style="fill:#BBE2A1;" d="M82.574,453.842c2.233-8.03,1.613-16.725,4.417-24.566c1.274-3.562,4.557-6.333,4.205-10.33
						c-0.349-3.962-4.053-6.979-8.045-6.117c-0.085,0.018-0.168,0.05-0.253,0.071c-1.703-0.096-3.225,0.12-4.591,0.587
						c-10.178-0.844-16.01,13.457-18.102,21.624c-1.368,5.338-2.241,11.507-0.144,16.792c2.755,6.946,11.091,5.33,17.143,5.346
						C79.371,457.254,81.929,456.161,82.574,453.842z"/>
				</g>
			</g>
			<g>
				<path style="fill:#416828;" d="M171.576,388.235c-1.01-6.066-6.185-12.687-9.658-16.087
					c-6.423-6.288-14.227-10.495-23.028-12.339c-0.064-0.013-0.13-0.023-0.194-0.037c-1.868-0.501-3.778-0.809-5.712-0.937
					c-3.369-1.063-6.919-1.617-10.735-1.451c-8.827,0.384-17.862,3.289-25.806,7.068c-8.7,4.138-16.794,10.09-22.363,18.044
					c-4.645,6.634-6.694,18.24-14.429,22.104c-4.26,2.128-3.549,9.325,1.66,9.534c0.336,0.013,0.68,0.015,1.021,0.021
					c8.964,3.771,18.407,5.808,28.058,7.205c10.299,1.49,20.85,2.762,31.259,3.017c17.334,0.425,36.115-4.683,49.327-16.396
					C177.697,402.021,176.222,394.941,171.576,388.235z"/>
				<g>
					<path style="fill:none;" d="M95.804,389.416c-3.926-0.535-7.726-1.204-11.374-2.21c-0.396,1.058-0.786,2.946-1.125,3.85
						c-0.687,1.835-1.46,3.642-2.173,5.468c-1.11,2.838-1.973,6.046-3.336,8.863c8.735,2.461,17.679,4.082,26.726,4.795
						c1.036-6.503,1.68-13.314,3.252-19.738C103.851,390.379,99.89,389.973,95.804,389.416z"/>
					<path style="fill:none;" d="M140.942,395.257c-1.367-3.57-2.409-8.067-4.714-11.257c-4.079,1.536-8.2,2.953-12.309,4.251
						c-4.231,1.337-8.37,1.971-12.521,2.149c-0.17,6.658-1.433,13.474-2.225,20.07c6.524,0.287,13.092,0.1,19.663-0.59
						c5.663-0.595,11.297-1.572,16.805-3.007C143.782,403.153,142.412,399.093,140.942,395.257z"/>
					<path style="fill:none;" d="M97.385,383.731c-0.028,0.304-0.044,0.58-0.058,0.847c0.351,0.038,0.703,0.076,1.052,0.115
						c4.498,0.493,9.083,1.078,13.614,0.731c2.188-0.168,4.331-0.57,6.442-1.111c-0.358-2.705-0.173-5.502-0.092-8.209
						c0.099-3.319-0.317-6.583-0.356-9.873c-4.653,0.65-9.552,0.691-14.262-0.05c-1.05,3.698-3.17,6.957-4.606,10.533
						C98.217,378.96,97.611,381.317,97.385,383.731z"/>
					<path style="fill:none;" d="M123.173,382.876c0.696-0.239,1.39-0.483,2.08-0.736c6.71-2.462,13.393-5.063,19.917-7.998
						c-1.608-1.252-3.037-2.914-4.425-4.189c-2.915-2.678-6.433-6.121-10.701-5.902c-0.566,0.029-1.031-0.166-1.373-0.475
						c-1.646,0.591-3.319,1.111-5.017,1.546c-0.654,0.167-1.318,0.323-1.99,0.466c1.058,2.843,1.108,6.016,1.203,9.028
						C122.955,377.351,123.122,380.123,123.173,382.876z"/>
					<path style="fill:#1D350E;" d="M169.981,403.125c1.459-0.829,2.895-1.702,4.303-2.618c0.321,0.326,0.621,0.675,0.907,1.044
						c0.694-2.651,0.326-5.402-0.771-8.154c-3.117,2.349-6.425,4.444-9.88,6.262c-4.735,2.491-9.691,4.481-14.78,6.048
						c-1.444-4.669-3.661-9.188-5.583-13.631c-1.435-3.318-2.664-6.575-4.962-9.227c3.684-1.451,7.324-2.999,10.869-4.664
						c3.972-1.865,7.832-3.964,11.535-6.319c-1.426-1.373-2.919-2.645-4.475-3.812c-2.544,1.524-5.174,2.905-7.845,4.191
						c-1.914-3.03-5.891-5.739-8.398-7.784c-1.925-1.57-3.937-2.818-6.128-3.483c0.941-0.467,1.868-0.962,2.784-1.48
						c-1.504-0.338-3.031-0.56-4.574-0.663c-0.467-0.147-0.939-0.283-1.414-0.41c-2.568,1.204-5.226,2.215-7.945,2.976
						c-7.483,2.095-14.499,1.995-21.57,0.616c-1.855,0.729-3.672,1.518-5.435,2.352c1.27,0.465,2.574,0.859,3.904,1.182
						c-2.085,4.059-4.663,7.972-6.214,12.246c-0.615,1.694-1.434,4.081-1.537,6.271c-5.793-0.685-11.707-1.619-17.13-3.656
						c-0.538,0.681-1.064,1.372-1.563,2.084c-0.085,0.121-0.167,0.246-0.249,0.371c2.335,1.349,4.758,2.433,7.266,3.306
						c-1.012,1.476-1.632,3.647-2.145,4.838c-1.747,4.051-4.239,8.652-5.337,13.127c-3.165-0.996-6.297-2.109-9.397-3.322
						c-0.869,1.061-1.83,2.003-2.915,2.78c1.518,0.682,3.045,1.344,4.587,1.971c-2.215,2.414-4.492,5.336-5.725,8.389
						c0.355,0.098,0.736,0.163,1.147,0.179c0.336,0.013,0.68,0.015,1.021,0.021c0.973,0.409,1.953,0.789,2.937,1.159
						c0.4-0.892,0.797-1.776,1.26-2.569c1.129-1.934,2.384-3.743,3.791-5.47c1.914,0.7,3.844,1.359,5.789,1.973
						c-1.908,2.349-3.961,5.268-4.788,8.087c1.588,0.472,3.184,0.919,4.794,1.315c0.303-0.802,0.574-1.623,0.907-2.384
						c0.893-2.042,1.869-3.974,3.022-5.842c2.292,0.649,4.599,1.242,6.922,1.771c-0.673,0.949-1.298,1.931-1.865,2.958
						c-0.845,1.531-1.985,3.261-1.801,5.039c1.431,0.267,2.869,0.509,4.311,0.738c0.71-1.069,1.014-2.409,1.552-3.614
						c0.656-1.469,1.456-2.843,2.349-4.168c2.285,0.44,4.582,0.82,6.887,1.143c-0.687,1.515-0.894,3.348-1.163,4.929
						c-0.171,1.002-0.297,2.015-0.371,3.031c1.652,0.217,3.307,0.427,4.966,0.621c0.142-0.926,0.274-1.854,0.42-2.779
						c0.271-1.714,0.859-3.489,0.816-5.227c2.816,0.297,5.64,0.506,8.468,0.627c0.286,1.397,0.468,2.812,0.475,4.247
						c0.007,1.293-0.339,2.783-0.166,4.111c1.297,0.101,2.592,0.189,3.887,0.264c0.497-1.352,0.444-3.004,0.416-4.382
						c-0.029-1.394-0.174-2.765-0.411-4.122c2.492,0.029,4.984-0.008,7.473-0.118c1.383,2.325,2.137,4.768,2.491,7.45
						c0.049,0.372,0.084,0.877,0.144,1.413c1.401-0.037,2.806-0.114,4.214-0.224c-0.059-1.308-0.436-2.696-0.698-3.575
						c-0.562-1.89-1.422-3.656-2.513-5.282c1.406-0.101,2.81-0.219,4.211-0.365c1.598-0.167,3.197-0.366,4.794-0.596
						c2.154,2.474,3.807,5.229,5.511,8.03c0.023,0.038,0.053,0.069,0.078,0.105c1.199-0.267,2.391-0.569,3.577-0.893
						c-0.006-0.109-0.016-0.221-0.04-0.34c-0.605-2.95-2.09-5.532-4.048-7.746c2.45-0.464,4.888-1.008,7.302-1.639
						c0.998,2.093,1.834,4.234,2.628,6.423c0.137,0.379,0.263,0.835,0.406,1.301c1.481-0.549,2.934-1.159,4.37-1.805
						c-0.886-2.477-1.993-4.813-3.306-7.088c1.408-0.432,2.805-0.897,4.19-1.393c2.07,1.585,3.257,3.633,4.226,5.919
						c1.343-0.751,2.652-1.556,3.932-2.404c-0.899-1.986-2.347-3.725-4.072-5.086c1.819-0.752,3.611-1.568,5.373-2.444
						c1.955,0.435,2.697,2.303,3.274,4.165c0.581-0.474,1.166-0.943,1.727-1.441c0.746-0.662,1.386-1.338,1.937-2.025
						C172.148,404.794,171.155,403.798,169.981,403.125z M123.654,365.122c1.697-0.435,3.37-0.955,5.017-1.546
						c0.342,0.309,0.807,0.504,1.373,0.475c4.268-0.22,7.786,3.224,10.701,5.902c1.388,1.275,2.818,2.937,4.425,4.189
						c-6.524,2.935-13.207,5.536-19.917,7.998c-0.69,0.253-1.384,0.497-2.08,0.736c-0.051-2.754-0.218-5.525-0.305-8.26
						c-0.095-3.012-0.146-6.185-1.203-9.028C122.337,365.445,123,365.29,123.654,365.122z M103.725,366.181
						c4.71,0.741,9.609,0.7,14.262,0.05c0.039,3.29,0.455,6.554,0.356,9.873c-0.081,2.707-0.266,5.504,0.092,8.209
						c-2.111,0.541-4.254,0.943-6.442,1.111c-4.531,0.348-9.116-0.238-13.614-0.731c-0.349-0.038-0.701-0.076-1.052-0.115
						c0.013-0.266,0.029-0.543,0.058-0.847c0.227-2.414,0.832-4.771,1.734-7.017C100.555,373.138,102.674,369.879,103.725,366.181z
						 M77.795,405.387c1.363-2.817,2.227-6.025,3.336-8.863c0.714-1.826,1.486-3.632,2.173-5.468
						c0.339-0.904,0.729-2.792,1.125-3.85c3.648,1.005,7.448,1.675,11.374,2.21c4.087,0.557,8.047,0.963,11.969,1.028
						c-1.573,6.424-2.216,13.235-3.252,19.738C95.474,409.469,86.53,407.848,77.795,405.387z M128.836,409.88
						c-6.571,0.69-13.139,0.877-19.663,0.59c0.792-6.596,2.055-13.412,2.225-20.07c4.152-0.178,8.29-0.812,12.521-2.149
						c4.108-1.298,8.229-2.716,12.309-4.251c2.305,3.191,3.346,7.688,4.714,11.257c1.469,3.837,2.84,7.896,4.699,11.616
						C140.134,408.308,134.499,409.285,128.836,409.88z"/>
				</g>
			</g>
			<g>
				<g>
					<path style="fill:#BBE2A1;" d="M220.866,400.631c-0.23-6.077-3.702-12.344-9.014-16.475c-9.82-7.638-21.956-5.187-29.888,3.7
						c-4.561,5.11-7.455,11.692-11.429,17.272c-1.426,0.583-2.821,1.267-4.296,1.659c-17.348,4.606-9.866,20.09-5.222,21.415
						c6.679,1.905,15.978-4.165,20.97-6.382c5.85-2.597,12.65-1.174,18.841-1.573c6.46-0.416,12.991-2.373,17.161-7.648
						C220.958,408.844,221.67,404.65,220.866,400.631z"/>
					<g>
						<path style="fill:#243F12;" d="M200.076,398.474c2.462,0.024,5.534-2.72,4.453-5.331c-0.427-1.032-1.909-0.874-2.298,0.087
							c-0.477,1.18-0.538,2.771-2.257,2.793c-1.742,0.022-1.779-1.615-2.714-2.542c-0.364-0.361-0.979-0.434-1.305,0.041
							c-0.727,1.06-0.056,2.442,0.693,3.315C197.496,397.828,198.767,398.461,200.076,398.474z"/>
						<path style="fill:#243F12;" d="M213.188,398.353c2.234,0.683,4.611-0.797,5.229-2.989c0.469-1.664-2.091-2.601-2.523-0.935
							c-0.246,0.952-1.099,1.8-2.165,1.56c-1.029-0.232-1.462-1.252-1.584-2.195c-0.109-0.835-1.488-1.02-1.707-0.154
							C209.928,395.663,211.194,397.744,213.188,398.353z"/>
						<path style="fill:#243F12;" d="M218.504,404.288c-0.276-1.24-0.926-2.24-2.035-2.879c-0.538-0.31-1.265,0.312-0.795,0.847
							c0.143,0.163,0.278,0.339,0.404,0.523c-0.068,0.003-0.139,0.01-0.213,0.025c-2.958,0.617-5.735,1.634-8.777,1.894
							c-3.123,0.267-6.228-0.136-9.339-0.365c0.093-0.332,0.2-0.663,0.333-0.999c0.261-0.657-0.643-1.382-1.18-0.841
							c-1.198,1.208-1.901,2.889-1.679,4.611c0.153,1.187,1.9,1.038,2.038-0.09c0.056-0.458,0.12-0.898,0.194-1.333
							c5.572,2.422,13.799,2.238,19.074-0.745c0.136-0.077,0.247-0.175,0.336-0.285c0.003,0.016,0.009,0.032,0.012,0.048
							c0.137,0.857-0.322,1.711-0.023,2.52c0.12,0.325,0.575,0.476,0.874,0.324C218.809,406.992,218.732,405.313,218.504,404.288z"
							/>
					</g>
				</g>
				<path style="fill:#243F12;" d="M161.867,422.126l-0.003,0.001c-0.817-1.339-1.739-2.638-2.13-4.137
					c-0.643-2.462,0.222-5.144,1.493-7.253c1.214-2.015,2.9-3.605,5.165-4.319c0.756-0.238,1.529-0.354,2.307-0.43l1.519-0.509
					l4.999-7.858c-2.569-3.106-7.839-3.72-11.672-2.913c-5.21,1.098-9.923,4.773-12.802,9.178
					c-4.391,6.718-5.508,19.275,0.864,24.889c1.745,0.629,3.297,1.695,5.055,2.298c1.135,0.389,2.313,0.61,3.489,0.84
					c10.998,0.834,13.72-6.112,13.72-6.112C167.712,427.151,161.867,422.126,161.867,422.126z"/>
			</g>
		</g>
		<g>
			<g>
				<path style="fill:#964209;" d="M262.625,444.498c0.729-2.83,2.426-5.132,4.728-6.907c1.887-1.455,4.954-1.93,6.605-3.522
					c1.607-1.55,1.719-5.2,2.177-7.358c0.735-3.463,1.413-6.935,2.066-10.414c0.211-1.126,0.765-1.89,1.481-2.356
					c0.534-2.387,1.041-4.784,1.641-7.153c0.472-1.862,1.253-3.512,2.04-5.163c-0.716-0.951-1.289-2.062-1.648-3.354
					c-3.442-12.38-4.2-24.817-2.784-37.423c-0.006-0.654-0.009-1.309-0.004-1.963c-2.805-1.3-5.201-3.406-6.856-6.779
					c-1.729-3.523-1.859-7.473-1.115-11.282c0.624-3.199,2.586-6.156,2.194-9.417c-0.28-2.335-1.156-4.74-2.058-7.115
					c0.039-0.108,0.078-0.216,0.086-0.35c0.042-0.699,0.044-1.397,0.029-2.094c0.162-0.174,0.27-0.41,0.253-0.729
					c-0.055-1.045-0.175-2.078-0.319-3.107c-0.048-0.37-0.115-0.737-0.17-1.106c-0.043-0.257-0.075-0.517-0.122-0.773
					c-0.472-2.92-1.124-5.803-1.858-8.671c0.753-7.026,2.051-14.126,1.961-21.212c1.365-2.454,3.009-4.723,4.93-6.665
					c0.065-2.084,0.305-4.15,0.713-6.141c1.27-6.197,4.275-12.828,9.177-16.956c1.754-1.477,3.829-2.565,5.99-3.158
					c0.361-0.616,0.736-1.222,1.129-1.811c2.375-5.209,6.661-9.473,12.052-12.06c8.735-4.193,17.852-2.898,26.456,0.928
					c6.996,3.112,14.248,6.814,19.175,12.839c0.509,0.623,0.952,1.248,1.365,1.875c5.872,2.415,10.834,7.395,13.771,13.558
					c1.841,3.862,2.673,7.902,2.359,11.905c2.219,2.668,3.752,6.202,4.522,9.051c1.885,6.977,0.478,13.706-3.031,19.879
					c-1.076,1.893-2.006,3.772-2.821,5.671c0.105,4.965,0.21,9.931,0.315,14.896c9.764,2.583,18.793,10.394,25.877,16.747
					c6.252,5.606,11.624,12.746,14.421,20.695c0.262,0.011,0.521,0.011,0.785,0.033c6.317,0.515,11.481,4.142,15.382,8.875
					c2.308-6.533,2.585-13.766,2.919-20.606c0.76-15.551,0.601-31.126-4.679-45.958c-1.43-4.015,4.527-6.173,6.656-2.806
					c11.048,17.47,17.15,36.788,17.247,57.517c0.045,9.66-1.11,19.679-6.522,27.957c-1.517,2.32-3.271,4.388-5.222,6.16
					c2.197,2.463,3.262,5.881,2.17,9.338c-0.116,0.366-0.232,0.743-0.349,1.118c0.525,5.811-0.059,11.727-1.685,17.334
					c-0.079,2.087-0.331,4.151-0.732,6.191c-0.399-0.233-0.94-0.265-1.361,0.079c-4.932,4.044-9.402,9.438-11.96,15.32
					c-14.147,11.502-33.079,13.068-49.44,5.418c-3.171-1.483-6.049-6.202-5.587-9.74c0.536-4.108,2.029-7.442,4.257-10.168
					c-4.355,0.584-9.386,0.929-14.153,0.478c-0.093,2.147-0.293,5.038,0.6,6.411c1.203,1.848,4.379,2.84,5.969,4.505
					c2.038,2.134,3.445,4.991,3.656,7.936c1.009,14.116-18.013,14.703-27.665,14.098c-6.031-0.379-12.559-1.244-16.277-6.618
					c-3.928-5.678-2.633-12.888-1.956-19.359c0.284-2.717,0.639-5.42,1.031-8.116c-1.381-0.014-2.77-0.109-4.162-0.281
					c-2.006-0.087-3.968-0.338-5.884-0.742c-0.058,2.075-0.143,4.151-0.281,6.23c-0.413,6.189-0.198,13.891-3.66,19.268
					c-3.863,6-10.955,6.711-17.414,6.012C279.247,462.323,258.9,458.954,262.625,444.498z"/>
				<path style="fill:#F9BB91;" d="M309.774,397.095c0.004-0.846,0.121-1.691,0.385-2.495c1.019-3.1,1.637-6.308,1.096-9.59
					c-0.194-1.181-0.542-2.289-0.981-3.356c-0.21-0.511-0.376-1.038-0.493-1.578c-0.268-1.236-0.635-2.45-1.083-3.621
					c-1.027-2.686-2.467-5.364-4.664-7.263c-0.619-0.535-1.099-1.209-1.516-1.913c-0.307-0.518-0.623-1.032-0.953-1.537
					c-0.009-0.013-0.018-0.027-0.027-0.04c-2.726-4.161-1.207-9.921,3.404-11.787c0.839-0.339,1.756-0.589,2.753-0.734
					c3.741-0.543,7.489,0.84,11.3,0.448c3.559-0.366,6.663-0.738,9.617,0.454c0.543,0.219,1.098,0.404,1.668,0.535
					c0.748,0.173,1.458,0.405,2.129,0.691c4.17,1.779,5.999,6.777,3.964,10.829c-0.105,0.21-0.209,0.42-0.312,0.631
					c-0.278,0.572-0.625,1.106-1.027,1.599c-2.962,3.625-5.273,7.817-7.087,12.089c-1.299,3.061-2.27,6.095-2.529,9.428
					c-0.296,3.802,0.052,7.635-0.477,11.422c-0.04,0.289,0.02,0.542,0.141,0.749c0.951,1.617,0.951,3.623,0.562,5.459
					c-0.313,1.479-0.711,2.92-1.279,4.304c-0.536,1.306-0.765,2.711-0.621,4.116c0.541,5.274-0.772,10.307-3.178,15.334
					c-2.384,4.98-11.274,2.719-10.675-2.891c0.991-9.292,1.341-17.992,0.114-27.276C309.825,399.73,309.767,398.405,309.774,397.095
					z"/>
			</g>
			<g>
				<g>
					<path style="fill:#3D1C06;" d="M288.549,286.436c0.214-1.638,2.608-1.758,2.647,0c0.191,8.642,2.055,16.526,4.367,24.621
						c-0.777,1.2-1.534,2.441-2.244,3.713C290.445,305.492,287.287,296.127,288.549,286.436z"/>
					<path style="fill:#3D1C06;" d="M268.48,292.309c1.255-6.729,2.422-13.894,7.954-18.317c0.141-0.642,0.284-1.264,0.427-1.845
						c1.914-7.791,6.78-19.982,16.692-19.071c1.14,0.105,1.135,1.656,0,1.77c-9.581,0.96-12.564,13.257-13.92,21.223
						c-0.654,3.843-0.91,7.801-0.599,11.692c0.323,4.046,1.813,7.406,2.773,11.261c0.324,1.303-1.238,2.175-2.207,1.285
						c-5.169-4.746-5.181-13.973-4.04-21.596c-2.477,4.699-3.172,10.454-3.993,15.547c-1.354,8.403-0.571,15.388,1.868,23.464
						c1.543,5.11,2.168,9.755,1.461,15.078c-1.007,7.583-2.849,17.613,4.383,22.899c8.234,6.019,15.062-2.826,17.221-10.171
						c0.237-0.806,0.43-1.621,0.588-2.443c0.95,0.348,1.939,0.585,2.952,0.702c-2.224,10.056-10.082,22.246-21.396,15.72
						c-5.721-3.3-8.019-9.914-8.23-16.197c-0.146-4.347,0.929-8.491,1.294-12.791c0.406-4.777-0.775-9.085-2.145-13.587
						C267.009,308.546,266.87,300.944,268.48,292.309z"/>
				</g>
				<path style="fill:#3D1C06;" d="M338.255,295.801c-0.099,0.234-0.25,0.482-0.441,0.69c-0.179,0.479-0.407,0.944-0.691,1.384
					c-0.155,0.241-0.378,0.417-0.623,0.548c-0.039,0.042-0.072,0.089-0.113,0.13c-0.729,0.74-1.92,0.346-2.224-0.587
					c-0.319-0.98-0.375-1.977-0.224-2.936c0.083-0.958,0.322-1.897,0.742-2.845c0.251-0.566,0.708-0.803,1.203-0.834
					c0.788-0.466,1.987-0.031,2.199,0.906c0.071,0.312,0.114,0.627,0.145,0.941C338.536,294.041,338.592,295.003,338.255,295.801z"
					/>
				<path style="fill:#3D1C06;" d="M299.33,298.084c-0.066,0.605-0.319,1.125-0.85,1.422c-0.56,0.475-1.399,0.633-2.045,0.209
					c-2.243-1.473-2.571-4.414-0.907-6.452c0.661-0.81,2.158-0.635,2.728,0.206c0.117,0.114,0.223,0.249,0.31,0.406
					c0.545,0.969,1.072,2.691,0.777,4.002C299.338,297.946,299.338,298.016,299.33,298.084z"/>
				<path style="fill:#3D1C06;" d="M269.234,432.948c2.077-3.145,4.557-5.865,6.2-9.324c1.736-3.654,2.863-7.626,3.545-11.604
					c1.618-9.437,0.751-19.357,0.364-28.871c-0.038-0.928,1.468-1.161,1.646-0.223c1.944,10.279,3.409,20.526,1.591,30.96
					c-1.087,6.236-3.521,13.796-8.046,18.8c0.204,0.403,0.133,0.944-0.33,1.234c-4.752,2.977-9.085,6.369-9.43,12.485
					c-0.366,6.476,4.274,9.003,9.506,10.115c-3.359-6.211-2.06-17.153,6.108-18.511c1.065-0.177,2.357,0.952,1.577,2.051
					c-3.111,4.384-6.742,8.409-3.442,13.998c0.134,0.227,0.288,0.439,0.439,0.652c0.175,0.064,0.347,0.147,0.509,0.274
					c0.943,0.743,1.687,1.609,2.49,2.409c1.106,0.616,2.337,1.014,3.639,1.12c0.994,0.08,1.917-0.112,2.822-0.352
					c-3.212-8.062,0.19-21.796,7.293-19.313c0.559,0.195,0.947,0.87,0.581,1.427c-2.18,3.309-4.223,4.958-4.525,9.382
					c-0.163,2.389-0.034,4.961,1.198,7.092c0.484,0.837,1.131,1.458,1.83,2.025c5.378-0.36,9.466-2.036,11.967-7.299
					c2.133-4.49,2.189-9.599,2.085-14.459c-0.115-5.366-0.445-10.723-0.766-16.079c-0.805-13.479-1.154-26.943,0.805-40.337
					c0.179-1.226,2.182-0.923,2.147,0.291c-0.471,16.132,1.451,32.325,2.193,48.428c0.372,8.08,1.288,17.012-2.438,24.511
					c-2.542,5.115-7.979,9.677-13.707,9.437c-0.295,0.25-0.659,0.424-1.074,0.441c-0.849,0.036-1.628-0.06-2.346-0.258
					c-3.575,1.142-7.447,1.348-10.948-0.186c-0.409-0.179-0.825-0.391-1.239-0.628c-0.758-0.278-1.484-0.625-2.176-1.028
					c-0.148,0.044-0.304,0.081-0.471,0.103c-8.807,1.163-18.507-4.161-18.83-13.601
					C259.785,441.808,263.413,435.165,269.234,432.948z"/>
				<path style="fill:#3D1C06;" d="M316.905,442.719c0.632-6.819,1.824-13.584,3.057-20.315c1.337-7.299,2.862-14.566,4.115-21.88
					c1.147-6.692,1.309-13.749,2.958-20.32c0.236-0.942,1.551-0.858,1.827,0c1.809,5.622,0.784,12.179,0.062,17.911
					c-0.915,7.256-2.162,14.462-3.462,21.657c-1.333,7.376-2.672,14.772-3.414,22.236c-0.369,3.721-0.218,7.514-0.27,11.269
					c0.087,0.165,0.158,0.344,0.193,0.548c0.4,2.315,0.141,5.28,1.632,7.214c3.389,4.399,8.317-0.149,9.451-3.859
					c1.592-5.209,0.569-10.98,1.789-16.339c0.29-1.273,2.045-0.872,2.147,0.29c0.579,6.624,2.623,16.07-1.396,21.87
					c0.383,0.384,0.765,0.772,1.218,1.063c0.116,0.074,0.24,0.142,0.36,0.212c1.306-0.274,2.426-0.031,3.857-0.138
					c3.063-0.23,5.589-2.154,7.051-4.786c2.664-4.794,1.499-11.029,0.614-16.178c-0.255-1.488,1.815-2.654,2.619-1.104
					c3.404,6.557,4.639,14.333,0.511,20.833c2.283-0.951,4.666-1.73,6.484-3.483c4.033-3.889,2.446-8.132-0.15-12.122
					c-2.943-4.523-3.744-8.961-2.971-14.322c1.045-7.255,2.958-13.93,2.541-21.371c-0.43-7.688-2.305-15.174-3.286-22.789
					c-0.187-1.453,1.938-1.499,2.385-0.323c3.045,8.018,5.091,16.611,5.513,25.199c0.215,4.377-0.14,8.643-0.956,12.935
					c-0.944,4.965-2.64,10.091-0.635,15.007c0.685,1.681,1.56,3.164,2.398,4.591c-1.058-4.258,0.831-9.508,3.49-12.633
					c3.176-3.732,7.851-5.868,12.649-6.154c-6.64-6.572-10.369-17.359-8.333-26.229c1.716-7.477,12.022-19.691,20.664-17.333
					c1.289,0.352,1.3,2.275,0,2.623c-7.652,2.047-15.568,10.901-16.045,18.718c-0.567,9.3,5.677,14.723,9.871,22.084
					c0.164,0.288,0.238,0.594,0.248,0.898c1.374,0.47,0.966,2.302-0.383,2.457c-5.092,0.589-10.453,1.137-14.349,4.848
					c-4.276,4.073-3.476,8.307-2.643,13.531c0.242,1.518-1.325,2.483-2.537,1.477c-0.266-0.22-0.5-0.459-0.726-0.701
					c1.006,2.336,1.407,4.825,0.195,8.074c-2.108,5.648-8.415,9.766-14.341,9.896c-1.048,0.023-1.784-0.734-2.019-1.616
					c-3.324,2.674-8.286,4.531-11.703,2.495c-0.902-0.075-1.802-0.39-2.59-0.807c-0.764-0.405-1.663-1.027-2.35-1.778
					c-0.679,0.397-1.424,0.751-2.26,1.044c-6.661,2.332-11.395-2.692-12.383-8.564C315.699,453.749,316.45,447.63,316.905,442.719z"
					/>
				<path style="fill:#3D1C06;" d="M388.338,436.486c1.372-0.204,2.582,1.777,1.048,2.486c-3.158,1.459-6.776,3.296-9.181,5.847
					c-1.219,1.293-2.242,2.941-2.449,4.729c-0.203,1.747,0.757,2.74,1.101,4.339c0.221,1.026-0.494,2.358-1.71,2.244
					c-5.076-0.473-4.661-7.254-2.967-10.671C376.962,439.85,382.477,437.356,388.338,436.486z"/>
				<path style="fill:#3D1C06;" d="M396.06,441.282c1.161,0.254,1.158,1.768,0.307,2.353c-1.833,1.259-4.12,3.255-5.262,5.161
					c-1.789,2.988,0.409,5.069,1.078,7.916c0.445,1.894-1.661,2.861-3.044,1.772c-3.289-2.587-3.81-7.926-1.739-11.397
					C388.919,444.543,392.825,440.574,396.06,441.282z"/>
				<path style="fill:#3D1C06;" d="M339.04,339.76c1.027-0.661,1.882-1.365,2.6-2.104c0.031,0.177,0.033,0.365-0.016,0.565
					c-1.265,5.127-2.203,10.142,0.376,15.078c2.311,4.424,7.051,7.748,12.135,7.755c15.165,0.022,10.753-16.523,10.393-25.934
					c-0.343-8.97,2.1-17.101,4.395-25.674c2.344-8.757,3.521-18.275-1.29-26.181c-1.074,8.395-5.157,16.352-11.892,20.055
					c-1.357,0.746-2.611-0.967-1.616-2.095c5.734-6.494,9.526-12.395,10.192-21.34c0.703-9.438-1.843-18.767-11.641-22.183
					c-1.158-0.404-0.702-2.164,0.511-1.855c10.424,2.656,15.068,13.323,14.72,24.093c8.281,7.959,6.945,20.239,4.302,30.411
					c-1.675,6.444-3.562,12.665-4.129,19.22c9.708,2.644,18.273,8.279,25.432,15.33c3.563,3.509,6.777,7.45,9.462,11.671
					c1.76,2.768,4.139,6.301,5.333,9.831c23.854,4.696,34.746,38.054,29.038,59.046c-2.288,8.412-9.145,17.314-15.398,23.325
					c-7.727,7.427-17.04,9.959-27.612,9.112c-0.901-0.072-0.879-1.284,0-1.384c9.088-1.038,17.995-4.215,24.675-10.665
					c5.55-5.359,11.435-13.301,13.685-20.721c3.268-10.781,0.721-24.59-3.962-34.585c-4.34-9.26-11.305-15.273-19.687-20.407
					c0.007,0.216,0.017,0.432,0.009,0.646c-0.054,1.546-2.07,2.592-3.213,1.331c-2.896-3.194-4.007-7.974-6.213-11.714
					c-2.621-4.441-5.715-8.595-9.258-12.343c-6.411-6.782-14.198-11.805-22.435-16.052c-0.023,0.723-0.052,1.445-0.037,2.178
					c0.132,6.447,2.594,13.523,0.599,19.834c-2.743,8.675-13.062,12.431-21.048,8.699c-8.209-3.836-12.139-13.733-9.692-22.21
					C338.18,340.277,338.608,340.037,339.04,339.76z"/>
				<path style="fill:#3D1C06;" d="M342.816,322.667c-0.454-1.11-0.973-2.229-1.54-3.354c-1.037-6.663,1.479-13.651,3.411-19.934
					c2.745-8.926,5.031-18.124,1.123-27.105c-0.43-0.987,0.91-1.848,1.484-0.867c3.773,6.444,3.589,13.644,2.165,20.782
					c-0.863,4.324-2.272,8.504-3.435,12.75c-1.558,5.688-2.155,11.275-2.736,17.123
					C343.257,322.378,343.054,322.584,342.816,322.667z"/>
			</g>
			<g>
				<path style="fill:#DD9F76;" d="M301.819,329.806c0.532-3.281,4.309-5.648,7.419-5.648c0.017,0,0.033,0.004,0.05,0.004
					c3.353-2.134,8.697-1.391,10.584,2.3c1.519-0.624,3.057-0.701,4.462-0.339c4.913-1.055,11.248,3.508,9.447,9.429
					c-2.312,7.6-9.513,13.021-17.595,12.148C307.346,346.746,300.373,338.73,301.819,329.806z"/>
				<path style="fill:#F9BB91;" d="M300.011,304.741c1.457-1.944,3.003-3.795,4.289-5.858c0.429-0.689,0.685-1.327,0.822-1.946
					c-0.194-0.254-0.391-0.509-0.602-0.765c-2.363-2.882-5.241-5.174-7.348-8.297c-4.129-6.121-5.459-13.604-1.78-20.214
					c1.55-2.784,5.375-4.437,8.462-3.443c6.84,2.202,9.613,7.664,11.679,13.697c0.564-1.402,1.208-2.77,1.921-4.092
					c3.241-6.008,9.263-13.696,17.05-10.872c6.785,2.46,8.932,11.152,5.675,17.192c-1.965,3.643-5.672,5.355-7.986,8.59
					c-1.894,2.648-1.947,6.27-1.507,9.37c1.654,11.651,24.067,31.547,8.353,41.658c-8.439,5.43-15.713-0.956-21.212-9.73
					c-0.68,2.397-1.658,4.724-3.202,6.925c-6.579,9.378-21.449,9.836-25.21-2.363C286.245,324.303,294.097,312.629,300.011,304.741z
					"/>
				<g>
					<path style="fill:#6B3109;" d="M291.209,339.553c6.525,2.514,14.601,3.876,20.166-1.704c5.443-5.457,3.828-13.051,3.851-19.932
						c-1.731-0.357-3.265-1.228-4.113-2.843c-1.348-2.568-0.211-6.181,2.753-6.985c0.712-0.193,1.459-0.238,2.195-0.162
						c0.585-0.132,1.184-0.221,1.779-0.264c2.395-0.295,4.935-0.074,6.244,1.85c0.56,0.441,0.987,1.07,1.175,1.756
						c0.194,0.705,0.149,1.358-0.055,1.954c-0.27,1.954-1.846,3.413-3.777,4.139c-0.742,0.279-1.578,0.491-2.444,0.62
						c-0.188,7.292,0.803,15.499,7.784,19.548c6.15,3.566,11.758,0.492,16.382-3.822c0.436-0.407,1.119-0.003,0.986,0.574
						c-1.699,7.363-10.705,9.36-16.887,6.52c-4.763-2.189-7.757-6.167-9.312-10.77c-0.663,4.488-2.544,8.669-6.175,11.469
						c-5.585,4.307-16.56,5.413-21.288-0.681C290.073,340.301,290.413,339.246,291.209,339.553z"/>
					<g>
						<path style="fill:#6B3109;" d="M337.009,332.411c-2.178,0-2.182-3.385,0-3.385
							C339.188,329.026,339.191,332.411,337.009,332.411L337.009,332.411z"/>
					</g>
					<path style="fill:#6B3109;" d="M302.841,325.659c-2.211,0-2.215-3.437,0-3.437
						C305.052,322.223,305.056,325.659,302.841,325.659z"/>
					<path style="fill:#6B3109;" d="M308.438,332.687c-0.249,0.268-0.543,0.457-0.883,0.567c-0.327,0.172-0.679,0.251-1.057,0.236
						c-0.378,0.014-0.73-0.064-1.057-0.236c-0.34-0.111-0.635-0.3-0.883-0.567c-0.268-0.249-0.457-0.543-0.567-0.883
						c-0.172-0.327-0.251-0.68-0.236-1.057c-0.007-0.172,0.012-0.338,0.045-0.5c0.019-0.214,0.065-0.421,0.166-0.613
						c0.087-0.267,0.235-0.498,0.445-0.693c0.033-0.033,0.074-0.053,0.109-0.084c0.014-0.016,0.024-0.034,0.038-0.049
						c0.185-0.143,0.37-0.286,0.555-0.429c0.428-0.248,0.89-0.373,1.385-0.375c0.243,0.033,0.486,0.065,0.729,0.098
						c0.465,0.13,0.868,0.366,1.211,0.706c0.143,0.185,0.286,0.37,0.429,0.555c0.248,0.428,0.373,0.89,0.375,1.385
						c0.014,0.378-0.064,0.73-0.236,1.057C308.895,332.144,308.706,332.438,308.438,332.687z"/>
					<path style="fill:#6B3109;" d="M296.346,332.167c-1.865,0-1.868-2.898,0-2.898
						C298.211,329.269,298.214,332.167,296.346,332.167z"/>
					<path style="fill:#6B3109;" d="M335.198,322.413c-0.15,0.116-0.301,0.233-0.452,0.349c-0.348,0.202-0.723,0.303-1.126,0.305
						c-0.307,0.012-0.594-0.052-0.86-0.192c-0.277-0.09-0.516-0.244-0.718-0.461c-0.217-0.202-0.371-0.441-0.461-0.718
						c-0.14-0.266-0.204-0.552-0.192-0.86c0.027-0.198,0.053-0.395,0.08-0.593c0.106-0.378,0.297-0.706,0.574-0.984
						c0.151-0.116,0.301-0.233,0.452-0.349c0.348-0.202,0.723-0.303,1.126-0.305c0.307-0.012,0.594,0.052,0.86,0.192
						c0.277,0.09,0.516,0.244,0.718,0.461c0.218,0.202,0.371,0.441,0.461,0.718c0.14,0.266,0.204,0.552,0.192,0.86
						c-0.027,0.198-0.053,0.395-0.08,0.593C335.666,321.806,335.475,322.134,335.198,322.413z"/>
					<path style="fill:#6B3109;" d="M330.342,329.416c-0.172,0.133-0.344,0.266-0.516,0.399c-0.398,0.231-0.827,0.347-1.288,0.348
						c-0.351,0.013-0.679-0.06-0.983-0.22c-0.316-0.103-0.59-0.279-0.821-0.528c-0.249-0.231-0.425-0.505-0.528-0.821
						c-0.16-0.304-0.233-0.632-0.22-0.983c0.03-0.226,0.061-0.452,0.091-0.678c0.121-0.432,0.34-0.808,0.656-1.126
						c0.172-0.133,0.344-0.266,0.516-0.399c0.398-0.231,0.827-0.347,1.288-0.348c0.351-0.013,0.679,0.06,0.983,0.22
						c0.316,0.103,0.59,0.279,0.821,0.528c0.249,0.231,0.425,0.505,0.528,0.821c0.16,0.304,0.233,0.632,0.22,0.983
						c-0.03,0.226-0.061,0.452-0.091,0.678C330.877,328.723,330.658,329.098,330.342,329.416z"/>
				</g>
			</g>
		</g>
		<g>
			<g>
				<path style="fill:#B58561;" d="M152.168,225.678c-3.548-1.21-7.091-2.423-10.684-3.494c2.263-3.427,3.709-7.326,4.099-11.436
					c0.668-7.045-1.969-17.511-7.17-22.523c-2.997-2.887-8.085-1.609-9.235,2.438c-1.56,5.491,0.267,11.275-1.313,16.855
					c-1.675,5.919-7.798,7.918-10.782,13.02c-4.041,6.909,1.357,14.668,8.368,16.179c4.328,0.933,8.574,1.732,12.8,2.714
					c3.763,1.423,7.458,2.54,11.658,2.929C159.909,243.285,160.753,228.606,152.168,225.678z"/>
				<g>
					<path style="fill:#B58561;" d="M77.06,112.221c11.8-11.334,16.885-23.848,14.444-38.318
						c-2.267-13.439-10.052-28.461-25.543-35.888c-5.673-2.72-12.074,1.757-10.748,6.297C58.664,56.13,68.44,65.84,68.349,78.405
						c-0.092,12.685-9.899,20.119-19.037,29.772c-9.508,10.044-13.972,22.334-16.215,34.447c-2.317,12.511-3.768,25.94,2.195,38.029
						c4.585,9.294,16.907,24.443,32.761,20.901c6.441-1.439,8.71-6.227,6.638-10.758c-2.383-5.211-9.565-8.426-13.142-13.211
						c-7.459-9.978-5.392-23.585-2.965-34.428C61.301,131.016,67.081,121.807,77.06,112.221z"/>
					<path style="fill:#634430;" d="M42.854,116.462c5.224,6.593,13.258,10.257,21.567,11.444
						c3.116-5.462,7.264-10.521,12.639-15.684c11.8-11.334,16.885-23.848,14.444-38.318c-2.267-13.439-10.052-28.461-25.543-35.888
						c-5.673-2.72-12.074,1.757-10.748,6.297C58.664,56.13,68.44,65.839,68.349,78.405c-0.092,12.685-9.899,20.119-19.037,29.772
						C46.83,110.799,44.699,113.577,42.854,116.462z"/>
				</g>
				<g>
					<path style="fill:#B58561;" d="M189.84,229.696c-0.625-3.026-2.099-5.199-3.367-7.952c-1.152-2.5-1.717-5.35-2.409-8.001
						c-1.683-6.448-3.301-12.893-4.538-19.444c-2.503-13.255-3.976-26.643-6.121-39.948c-0.727-4.509-7.967-4.274-8.88,0
						c-0.745,3.492-1.29,6.995-1.676,10.506c-0.976,0.569-1.782,1.447-2.156,2.537c-1.847,5.395-1.362,11.687-1.225,17.333
						c0.143,5.899,0.09,11.855,0.727,17.728c1.034,9.53,4.544,21.402,10.963,28.988c2.274,3.715,5.339,6.473,9.557,7.377
						C186.432,240.047,191.014,235.378,189.84,229.696z"/>
					<path style="fill:#634430;" d="M189.84,229.696c-0.625-3.026-2.099-5.199-3.367-7.952c-1.152-2.5-1.717-5.35-2.409-8.001
						c-1.66-6.361-3.254-12.721-4.485-19.182c-3.331-0.356-6.697-0.108-9.777,1.161c-6.399,2.637-8.245,9.255-7.887,15.653
						c0.007,0.129-0.022,0.233-0.05,0.339c1.799,7.165,4.847,14.475,9.293,19.73c2.274,3.715,5.339,6.473,9.557,7.377
						C186.432,240.047,191.014,235.378,189.84,229.696z"/>
				</g>
			</g>
			<g>
				<path style="fill:#CCA17D;" d="M169.664,179.698c1.548-2.032,3.008-4.185,4.358-6.488c5.89-10.044,10.462-21.933,9.241-33.745
					c-1.133-10.953-6.332-20.4-12.367-29.338c3.967-3.327,7.29-7.365,9.541-12.189c5.376-11.522,3.083-26.049-6.041-33.449
					c-0.097-0.862-0.403-1.737-0.984-2.588c-5.445-7.97-12.475-14.438-19.382-21.079c-3.25-3.125-8.837-0.875-8.884,3.68
					c-0.037,3.599,0.389,7.04,1.147,10.44c-3.536,0.545-7.07,1.828-9.579,2.961c-4.429,2.001-8.552,5.07-11.659,8.905
					c-4.607-3.517-8.801-7.806-11.73-12.717c-0.931-1.561-2.353-2.365-3.851-2.574c-2.591-2.324-6.622-0.268-7.086,3.282
					c-1.147,8.763,1.135,17.683,4.464,25.784c-0.855,1.491-1.542,3.103-2.018,4.789c-1.882,6.66-0.882,13.652,1.9,19.877
					c2.377,5.318,6.185,9.985,10.707,13.993c-0.58,0.781-1.192,1.533-1.81,2.245c-5.577,2.546-10.713,6.575-15.45,10.539
					c-1.787,1.496-3.542,3.028-5.278,4.579c-5.746,3.524-11.287,7.279-16.42,11.771c-6.509,5.696-12.491,11.301-16.899,18.828
					c-4.646,7.933-7.38,16.596-8.172,25.745c-1.515,17.494,5.439,35.251,19.902,45.535c8.009,5.695,17.596,8.739,26.823,11.837
					c5.516,1.852,10.854,3.011,16.501,4.297c5.33,1.214,10.793,3.318,16.294,3.223c4.85-0.084,8.835-7.076,4.377-10.567
					c-4.32-3.384-9.494-5.095-14.488-7.32c-0.499-0.222-0.992-0.449-1.484-0.677c0.643-1,1.255-2.023,1.847-3.048
					c1.967-3.408,3.364-7.022,4.506-10.786c1.898-6.254,3.146-12.546,3.116-19.027c2.319-0.91,4.608-1.862,6.857-2.87
					c0.136,1.939,0.286,3.876,0.484,5.809c1.236,12.062,3.922,23.466,9.482,34.31c4.038,7.874,15.659,3.725,15.921-4.312
					c0.48-14.761-4.831-28.436-8.252-42.554c-0.156-0.642-0.296-1.285-0.437-1.927C160.846,191.012,165.973,185.779,169.664,179.698
					z"/>
				<path style="fill:#634430;" d="M137.308,247.272c-4.32-3.384-9.494-5.095-14.488-7.32c-0.499-0.222-0.992-0.449-1.484-0.677
					c0.216-0.335,0.41-0.682,0.619-1.022c-8.804-3.045-14.646-11.615-23.498-14.575c-0.088,3.558,0.778,7.102,2.474,10.242
					c0.439,0.813-0.289,1.887-1.232,1.603c-7.376-2.217-14.129-6.228-20.711-10.183c-0.084,2.695,0.286,5.352,0.93,7.995
					c0.209,0.856-0.526,1.492-1.343,1.342c-4.716-0.863-9.311-2.779-13.534-5.008c-0.563-0.298-1.131-0.609-1.699-0.93
					c2.779,3.681,6.097,6.986,9.973,9.743c8.009,5.695,17.596,8.739,26.823,11.837c5.516,1.852,10.854,3.011,16.501,4.297
					c5.33,1.214,10.793,3.318,16.294,3.223C137.781,257.756,141.766,250.763,137.308,247.272z"/>
				<path style="fill:#F7D1B5;" d="M177.564,121.245c-4.659,3.229-7.167,8.637-8.929,14.235c-0.08,0.256-0.233,0.422-0.407,0.546
					c-0.017,0.972-1.445,1.61-2.01,0.56c-2.38-4.425-7.331-7.678-12.465-7.301c-5.408,0.398-8.099,5.219-8.731,10.137
					c-0.886,6.901,1.965,13.671,5.549,19.406c3.57,5.713,8.02,10.857,12.946,15.435c2.033,1.889,4.087,3.678,6.476,4.975
					c1.423-1.9,2.777-3.894,4.028-6.028c5.89-10.044,10.462-21.933,9.241-33.745C182.586,132.925,180.453,126.924,177.564,121.245z"
					/>
				<path style="fill:#634430;" d="M104.832,85.37c-0.394,1.395-0.655,2.806-0.807,4.22c0.394-0.336,0.789-0.673,1.184-1.007
					c7.358-6.227,18.502-14.567,15.552-25.422c-2.881-2.71-5.454-5.743-7.438-9.071c-0.931-1.561-2.353-2.365-3.851-2.574
					c-2.591-2.324-6.622-0.268-7.086,3.282c-1.147,8.763,1.135,17.683,4.464,25.784C105.995,82.072,105.308,83.684,104.832,85.37z"
					/>
				<path style="fill:#634430;" d="M166.532,60.99c2.115,0.223,4.213,0.245,6.276,0.078c-5.357-7.585-12.119-13.841-18.779-20.246
					c-3.25-3.125-8.837-0.875-8.884,3.68c-0.032,3.135,0.303,6.146,0.887,9.119C152.315,57.358,159.24,60.222,166.532,60.99z"/>
				<path style="fill:#634430;" d="M149.035,197.07c-4.221,0.508-8.394,3.139-10.242,7.013c-0.387,0.812-0.668,1.663-0.898,2.529
					c0.076,0.914,0.157,1.827,0.251,2.74c1.236,12.062,3.922,23.466,9.482,34.31c4.038,7.874,15.659,3.725,15.921-4.312
					c0.446-13.693-4.091-26.453-7.481-39.498C154.337,197.917,152.07,196.704,149.035,197.07z"/>
				<path style="fill:#634430;" d="M167.984,82.223c-3.2-3.642-7.474-5.835-11.46-8.466c-3.843-2.536-5.36-7.106-9.36-9.24
					c-4.403-2.349-9.246,0.621-9.545,5.478c-0.252,4.094-0.229,8.154,0.239,12.176c-0.901,2.305-1.828,4.537-2.286,6.533
					c-1.272,5.548-1.121,11.344,1.929,16.313c5.882,9.581,18.751,12.251,27.807,5.572
					C174.414,103.873,175.333,90.585,167.984,82.223z"/>
			</g>
			<g>
				<path style="fill:#210F05;" d="M139.282,94.645c0.562,0.02,0.556-0.838,0-0.87c-7.312-0.42-14.305,0.972-21.314,2.967
					c-7.99,2.274-16.354,4.293-24.04,7.458c-0.765,0.315-0.495,1.423,0.347,1.258C109.267,102.52,123.731,94.092,139.282,94.645z"/>
				<path style="fill:#210F05;" d="M144.479,97.31c0.978-0.399,0.604-1.982-0.449-1.628c-15.834,5.33-32.729,11.305-47.316,19.54
					c-0.631,0.356-0.21,1.433,0.503,1.192c8.021-2.708,15.714-6.457,23.552-9.65C128.65,103.555,136.6,100.523,144.479,97.31z"/>
				<path style="fill:#210F05;" d="M144.352,101.898c-4.669,2.118-8.586,5.358-12.909,8.067c-4.509,2.825-9.275,5-14.021,7.372
					c-0.616,0.308-0.187,1.352,0.473,1.122c10.082-3.509,17.808-10.628,27.18-15.324
					C145.908,102.717,145.178,101.523,144.352,101.898z"/>
				<path style="fill:#210F05;" d="M165.682,85.562c5.916-4.785,12.183-9.096,18.784-12.883c6.122-3.512,12.756-5.909,18.923-9.267
					c0.817-0.445,0.252-1.688-0.621-1.473c-14.001,3.451-27.424,13.264-38.226,22.483C163.746,85.103,164.888,86.204,165.682,85.562
					z"/>
				<path style="fill:#210F05;" d="M206.971,69.812c-7.139,0.972-14.414,4.361-20.929,7.353
					c-7.228,3.319-14.129,7.239-20.828,11.521c-0.801,0.512-0.072,1.781,0.749,1.281c6.527-3.975,13.306-7.479,20.327-10.501
					c6.976-3.003,14.509-4.85,21.362-8.042C208.645,70.962,207.864,69.69,206.971,69.812z"/>
				<path style="fill:#210F05;" d="M203.924,85.902c-12.014,0.299-24.405,3.443-36.134,5.868c-1.119,0.231-0.637,1.903,0.469,1.702
					c11.84-2.147,24.221-3.1,35.868-6.063C204.961,87.197,204.795,85.88,203.924,85.902z"/>
				<path style="fill:#210F05;" d="M146.965,87.425c1.008,0.399,2.051,0.434,3.105,0.614c0.956,0.164,1.859,0.542,2.801,0.735
					c0.468,1.259,0.913,2.43,0.69,3.838c-0.277,1.742-1.231,2.935-2.636,3.925c-0.924,0.651-0.388,2.485,0.838,1.987
					c2.439-0.991,4.18-4.093,4.147-6.913c0.565,0.281,1.152,0.503,1.702,0.653c2.24,0.61,6.595,1.368,6.972-1.92
					c0.071-0.621-0.61-0.915-1.101-0.839c-1.619,0.251-2.715,0.715-4.404,0.375c-1.378-0.277-3.391-0.732-3.937-2.099
					c0.079-0.217,0.099-0.448,0.077-0.684c0.373-0.263,0.66-0.704,0.741-1.346c0.217-1.731,0.536-3.463,0.881-5.173
					c0.252-1.252-1.232-1.776-1.964-0.828c-1.187,1.538-1.905,3.266-2.222,5.168c-1.957-0.662-4.406-0.698-5.995,0.17
					C145.605,85.663,146.008,87.047,146.965,87.425z"/>
				<path style="fill:#210F05;" d="M163.115,95.716c-0.637,0.295-0.883,0.871-1.258,1.435c-0.396,0.597-0.858,1.143-1.357,1.657
					c-1.031,1.063-2.242,1.862-3.59,2.465c-0.942,0.421-0.265,2.064,0.709,1.683c1.614-0.63,3.072-1.499,4.341-2.687
					c1.022-0.957,2.6-2.574,2.318-4.079C164.178,95.643,163.538,95.52,163.115,95.716z"/>
				<path style="fill:#210F05;" d="M132.203,83.279c2.423-0.427,6.186-3.81,4.469-6.485c-0.328-0.511-1.163-0.735-1.607-0.207
					c-1.186,1.41-1.065,3.32-3.17,3.963c-0.972,0.297-1.915,0.112-2.795-0.361c-0.781-0.42-1.261-1.185-2.056-1.534
					c-0.382-0.168-0.961-0.073-1.052,0.428C125.446,82.083,129.865,83.692,132.203,83.279z"/>
				<path style="fill:#210F05;" d="M163.279,62.159c0.17,1.472-0.715,3.349-1.474,4.565c-0.387,0.62-0.93,1.424-1.661,1.666
					c-1.025,0.34-2.149-0.327-2.996-0.827c-0.873-0.515-1.874,0.717-1.1,1.426c1.081,0.991,2.206,2.04,3.748,2.091
					c1.377,0.045,2.629-0.692,3.526-1.694c1.528-1.706,3.755-5.622,2.222-7.841C164.936,60.665,163.128,60.847,163.279,62.159z"/>
				<path style="fill:#210F05;" d="M108.956,79.721c-0.309,1.846,2.43,2.681,2.861,0.789c1.184-5.198,1.385-10.98,0.424-16.505
					c0.914,0.342,1.575,1.174,2.03,2.106c0.586,1.199,0.504,3.004,1.761,3.705c0.52,0.29,1.154,0.114,1.47-0.385
					c0.987-1.561-0.682-4.471-1.763-5.673c-0.974-1.082-2.435-1.688-3.879-1.654c-0.938-4.144-2.555-8.085-4.964-11.443
					c-0.529-0.738-1.951-0.329-1.59,0.67C108.815,61.015,110.692,69.351,108.956,79.721z"/>
				<path style="fill:#210F05;" d="M152.399,47.824c1.216,2.579,1.664,5.543,3.036,8.008c0.53,0.952,1.82,0.434,1.907-0.516
					c0.158-1.717-0.177-3.516-0.82-5.292c1.319,0.701,2.544,1.575,3.505,2.738c1.344,1.627,1.228,3.494,2.085,5.258
					c0.236,0.486,0.937,0.411,1.193,0c1.166-1.872-0.202-4.64-1.38-6.184c-1.519-1.991-3.666-3.178-5.975-4.036
					c-0.143-0.053-0.275-0.05-0.401-0.024c-1.635-3.24-4.095-6.25-6.255-8.356c-0.708-0.69-2.071,0.253-1.426,1.1
					C149.594,42.791,151.18,45.24,152.399,47.824z"/>
				<path style="fill:#210F05;" d="M112.119,244.54c-1.111-0.147-1.318,1.667-0.262,1.934c3.997,1.011,7.782,2.738,11.365,4.767
					c3.347,1.895,5.963,4.625,9.13,6.73c1.227,0.816,2.833-0.805,2.03-2.03C129.705,248.811,120.116,245.6,112.119,244.54z"/>
				<path style="fill:#210F05;" d="M136.489,247.296c-3.795-2.066-7.792-4.109-12.033-5.048c-1.098-0.243-1.7,1.178-0.759,1.8
					c2.856,1.886,5.983,3.328,9.004,4.927c2.88,1.524,4.727,2.911,6.811,5.378c0.81,0.958,2.12,0.083,2.227-0.922
					C142.066,250.373,138.806,248.558,136.489,247.296z"/>
				<path style="fill:#210F05;" d="M154.911,246.195c0.464,0.494,0.97,0.582,1.601,0.423c0.52-0.131,1.044-0.608,1.149-1.149
					c0.578-2.968,0.172-6.993-2.486-8.893c-0.862-0.616-1.692,0.4-1.578,1.213c0.286,2.049,1.127,3.808,0.982,5.945
					C154.518,244.624,154.228,245.469,154.911,246.195z"/>
				<path style="fill:#210F05;" d="M157.668,201.467c-2.964-17.895-2.426-36.422,0.714-54.256c0.222-1.258-1.627-1.819-1.948-0.537
					c-4.063,16.193-5.158,32.709-3.25,49.309c0.902,7.843,2.54,15.484,4.503,23.122c0.992,3.86,2.016,7.724,2.672,11.658
					c0.239,1.433,0.352,2.855,0.413,4.274c-0.696-0.195-1.559,0.408-1.331,1.275c0.426,1.622,0.667,3.349,0.701,5.027
					c0.024,1.158-0.337,2.397,0.24,3.383c-3.501,5.894-12.647-1.29-15.01-5.539c-2.247-4.04-3.021-8.753-3.867-13.231
					c-1.986-10.507-3.905-20.969-6.431-31.362c-0.249-1.024-2.019-0.837-1.884,0.255c1.065,8.62,2.441,17.124,3.978,25.676
					c1.349,7.502,2.049,15.973,6.549,22.402c2.968,4.241,7.789,7.69,13.186,7.27c2.761-0.215,5.136-1.539,6.239-3.63
					c0.041-0.056,0.088-0.098,0.123-0.168c3.072-6.11,1.333-14.12-0.049-20.524C161.453,217.703,159.036,209.727,157.668,201.467z"
					/>
				<path style="fill:#210F05;" d="M122.419,240.789c19.076-25.273,8.385-56.997-5.636-81.681c-0.558-0.983-1.991-0.118-1.502,0.878
					c11.808,24.039,21.526,55.079,3.649,78.764C117.362,240.826,120.869,242.842,122.419,240.789z"/>
			</g>
		</g>
		<g>
			<g>
				<path style="fill:#A06944;" d="M80.571,310.993c-0.216,0.42-0.45,0.828-0.673,1.243c-0.122,0.106-0.238,0.227-0.344,0.37
					c-1.687,2.27-3.38,4.536-5.069,6.805c-1.711,1.754-3.355,3.648-4.175,5.606c-0.023,0.031-0.046,0.061-0.068,0.092
					c-0.362,0.484-0.456,0.96-0.382,1.39c-0.673,3.579,1.104,8.437,1.678,11.858c0.342,2.04,3.21,1.33,3.373-0.457
					c0.299-3.267,0.259-6.44-0.134-9.652c2.481-3.16,4.963-6.32,7.444-9.481c0.67-0.853,0.621-1.844,0.204-2.597
					c0.342-0.508,0.685-1.017,1.027-1.525c0.165-0.246,0.261-0.486,0.321-0.719c0.136-0.311,0.192-0.612,0.169-0.892
					c0.009-0.018,0.018-0.036,0.027-0.055C85.046,310.717,81.738,308.721,80.571,310.993z"/>
				<g>
					<path style="fill:#351C0C;" d="M84.854,310.414c-1.33-1.792-3.689-2.337-5.439-0.73c-1.837,1.686-2.072,4.895-1.867,7.209
						c0.011,0.128,0.034,0.256,0.05,0.385c0.033,2.068,0.665,4.067,2.305,4.775c0.752,0.572,1.679,0.754,2.781,0.293
						c0.454-0.057,0.905-0.213,1.322-0.499c0.689-0.472,1.122-1.155,1.391-1.926C87.059,317.114,86.708,312.912,84.854,310.414z"/>
					<path style="fill:#351C0C;" d="M73.26,329.479c0.769,0.094,1.548-0.579,1.821-1.225c0.184-0.437,0.194-0.872,0.077-1.281
						c-0.131-0.761-0.624-1.516-1.21-2.044c-0.993-0.895-2.151-1.32-3.461-1.476c-1.081-0.129-2.039,1.075-1.927,2.112
						c-0.108,0.641,0.055,1.346,0.506,1.827c0.513,0.548,1.249,1.184,2.033,1.415C71.742,329.154,72.469,329.383,73.26,329.479z"/>
					<path style="fill:#351C0C;" d="M74.558,336.733c-0.157-0.112-0.344-0.181-0.532-0.183c-0.202-0.003-0.403,0.002-0.603,0.014
						c-0.205-0.117-0.467-0.159-0.78-0.075c-0.112,0.03-0.219,0.073-0.327,0.112c-0.91-0.663-2.411,0.335-1.653,1.391
						c0.145,0.202,0.275,0.418,0.399,0.641c0.001,0.001,0.001,0.003,0.002,0.004c0.118,0.213,0.228,0.433,0.334,0.657
						c0.061,0.164,0.134,0.327,0.213,0.486c0.113,0.301,0.246,0.59,0.399,0.856c0.045,0.099,0.09,0.201,0.136,0.298
						c0.063,0.129,0.141,0.228,0.227,0.309c0.013,1.15,1.913,1.435,2.204,0.317c0.066-0.113,0.116-0.238,0.125-0.377
						c0.02-0.308,0.039-0.615,0.059-0.923c0.125-0.73,0.319-1.446,0.53-2.159C75.47,337.49,75.091,336.927,74.558,336.733z"/>
				</g>
			</g>
			<g>
				<path style="fill:#A06944;" d="M87.441,302.467c-0.061-0.531-0.384-1.027-0.939-1.106c-4.717-0.672-12.686-0.5-16.704,2.415
					c-0.919,0.667-1.803,1.432-2.658,2.264c-3.661,3.21-6.942,7.58-9.142,11.683c-1.442,2.689,2.312,4.781,4.033,2.357
					c1.545-2.175,3.382-5.045,5.438-7.565c1.066-1.168,2.189-2.28,3.355-3.32c3.707-3.302,10.07-2.669,14.765-3.299
					C87.467,305.646,88.151,303.69,87.441,302.467z"/>
				<g>
					<path style="fill:#351C0C;" d="M70.246,305.272c-0.165-0.298-0.338-0.593-0.528-0.879c-0.155-0.234-0.346-0.408-0.553-0.539
						c-0.009-0.02-0.016-0.04-0.025-0.06c-0.392-0.848-1.449-0.617-1.871,0.028c-0.619,0.346-1.026,1.036-0.782,1.933
						c0.042,0.156,0.092,0.308,0.137,0.462c0.259,1.732,0.667,3.594,1.744,4.995c0.218,0.283,0.477,0.464,0.745,0.564
						c1.018,0.685,2.667-0.133,2.605-1.435c-0.058-1.209-0.317-2.379-0.74-3.492C70.805,306.297,70.562,305.768,70.246,305.272z"/>
					<path style="fill:#351C0C;" d="M84.235,299.69c-0.814-0.156-1.655-0.005-2.33,0.637c-1.255,1.193-1.315,3.461-0.582,4.934
						c0.803,1.615,2.768,2.493,4.463,1.758c0.25-0.109,0.473-0.252,0.682-0.412C89.367,304.869,88.002,298.931,84.235,299.69z"/>
					<path style="fill:#351C0C;" d="M61.825,318.675c-0.491-0.811-1.79-1.302-2.526-1.576c-0.177-0.066-0.342-0.065-0.499-0.037
						c-0.256-0.248-0.728-0.288-0.941,0.096c-0.81,1.46-1.161,3.792-0.305,5.358c0.309,0.865,0.854,1.652,1.566,2.414
						c0.262,0.28,0.56,0.361,0.836,0.316c0.506,0.119,1.035-0.3,1.094-0.862c0.099-0.935,0.317-1.848,0.613-2.74
						c0.253-0.762,0.72-1.4,0.977-2.14C62.814,319.007,62.291,318.568,61.825,318.675z"/>
				</g>
			</g>
			<g>
				<path style="fill:#A06944;" d="M84.391,294.511c-4.948-1.23-12.002-3.06-17.012-1.572c-2.617,0.777-5.296,2.593-7.696,3.867
					c-2.047,1.087-3.598,2.012-4.752,4.054c-0.448,0.794-0.277,1.567,0.195,2.092c0.215,0.765,0.909,1.369,1.822,1.032
					c4.287-1.583,8.245-4.65,12.238-7.03c0.242,0.561,0.763,1.007,1.576,1.052c4.372,0.242,8.758,0.221,13.136,0.153
					C85.953,298.128,86.468,295.027,84.391,294.511z"/>
				<g>
					<path style="fill:#351C0C;" d="M67.661,291.254c-0.625,0.232-1.098,0.772-1.012,1.573c0.155,1.44,0.325,3.508,1.163,4.938
						c0.094,0.212,0.194,0.424,0.3,0.633c0.119,0.233,0.293,0.399,0.484,0.534c0.03,0.046,0.057,0.094,0.089,0.138
						c1.071,1.431,3.03,0.883,3.243-0.878c0.27-2.233-0.441-4.576-1.715-6.403C69.556,290.846,68.425,290.736,67.661,291.254z"/>
					<path style="fill:#351C0C;" d="M83.69,294.231c-0.376-0.736-1.055-1.384-1.802-1.698c-1.534-0.759-3.138,0.222-3.46,1.929
						c-0.171,0.906-0.11,1.905,0.216,2.793c0.216,0.863,0.735,1.592,1.605,1.959c1.222,0.669,2.8,0.461,3.547-0.926
						C84.471,297.032,84.32,295.466,83.69,294.231z"/>
					<path style="fill:#351C0C;" d="M55.272,299.423c-0.034,0.061-0.057,0.124-0.088,0.186c-0.027,0.027-0.06,0.042-0.086,0.073
						c-0.057,0.071-0.106,0.14-0.157,0.209c-0.453,0.412-0.875,0.857-1.295,1.329c-0.705,0.79-1.561,1.546-1.278,2.699
						c0.131,0.533,0.602,0.773,1.097,0.835c0.847,0.107,1.663,0.11,2.506-0.022c0.731-0.114,1.657-0.254,2.244-0.742
						c1.405-1.169,0.011-3.428-0.736-4.567C56.97,298.646,55.76,298.546,55.272,299.423z"/>
				</g>
			</g>
			<g>
				<path style="fill:#A06944;" d="M81.067,284.765c-1.622-2.148-3.273-4.275-4.911-6.41c-0.798-1.04-1.999-1.221-2.894-0.646
					c-0.087-0.169-0.195-0.328-0.336-0.463c-0.189-0.922-0.885-1.715-2.025-1.636c-2.436,0.169-5.723,0.509-7.798,2.115
					c-0.181,0.096-0.365,0.186-0.538,0.294c-1.816,1.137-1.061,3.932,1.083,3.998c1.67,0.051,3.124-0.635,4.739-0.92
					c1.133-0.2,2.261-0.176,3.267-0.533c-0.068,0.171-0.136,0.342-0.204,0.513c-0.43,1.082,0.297,2.005,1.238,2.373
					c1.596,1.648,3.514,3.119,5.526,4.17C79.884,288.49,82.422,286.559,81.067,284.765z"/>
				<g>
					<path style="fill:#351C0C;" d="M74.74,275.405c-1.202-0.507-2.587-0.053-3.27,1.072c-0.076,0.124-0.149,0.249-0.225,0.374
						c-0.921,0.775-1.278,2.245-1.898,3.258c-0.742,1.365-0.382,3.299,1.066,4.065c1.572,0.831,3.051,0.256,4.064-1.066
						c0.394-0.514,0.767-1.048,1.076-1.618c0.541-1.001,0.753-1.848,0.672-2.907c0.01-0.029,0.021-0.057,0.032-0.086
						C76.698,277.268,75.857,275.876,74.74,275.405z"/>
					<path style="fill:#351C0C;" d="M84.749,285.531c-0.105-0.249-0.21-0.498-0.315-0.747c-0.197-0.364-0.465-0.657-0.805-0.877
						c-0.527-0.408-1.21-0.702-1.895-0.671c-0.555,0.025-1.087,0.167-1.578,0.427c-0.713,0.377-1.19,1.131-1.437,1.869
						c-0.005,0.015-0.011,0.029-0.016,0.044c-0.085,0.182-0.165,0.366-0.211,0.561c-0.016,0.068-0.023,0.141-0.035,0.211
						c-0.022,0.146-0.061,0.287-0.094,0.43c-0.122,0.387-0.193,0.79-0.188,1.186c0.009,0.71,0.251,1.365,0.681,1.923
						c0.405,0.524,0.984,0.986,1.648,1.137c1.353,0.308,2.884-0.194,3.584-1.458c0.274-0.494,0.529-1.034,0.687-1.573
						C85.02,287.159,84.893,286.365,84.749,285.531z"/>
					<path style="fill:#351C0C;" d="M63.747,278.158c0.017-0.056,0.044-0.108,0.056-0.166c0.166-0.803-0.463-1.342-1.229-1.229
						c-0.856,0.127-1.497,0.912-2.117,1.462c-0.593,0.525-1.421,1.056-1.421,1.944c0,1.6,2.279,2.409,3.561,2.48
						c0.688,0.038,1.249-0.608,1.259-1.259c0.017-1.027,0.001-2.046-0.08-3.07C63.772,278.261,63.757,278.211,63.747,278.158z"/>
				</g>
			</g>
			<g>
				<path style="fill:#A06944;" d="M103.292,310.993c0.216,0.42,0.45,0.828,0.673,1.243c0.122,0.106,0.238,0.227,0.344,0.37
					c1.687,2.27,3.38,4.536,5.068,6.805c1.711,1.754,3.355,3.648,4.175,5.606c0.023,0.031,0.046,0.061,0.068,0.092
					c0.362,0.484,0.456,0.96,0.382,1.39c0.673,3.579-1.103,8.437-1.678,11.858c-0.342,2.04-3.21,1.33-3.373-0.457
					c-0.299-3.267-0.259-6.44,0.134-9.652c-2.481-3.16-4.963-6.32-7.444-9.481c-0.67-0.853-0.621-1.844-0.204-2.597
					c-0.342-0.508-0.684-1.017-1.027-1.525c-0.165-0.246-0.261-0.486-0.321-0.719c-0.136-0.311-0.192-0.612-0.169-0.892
					c-0.009-0.018-0.018-0.036-0.027-0.055C98.817,310.717,102.124,308.721,103.292,310.993z"/>
				<g>
					<path style="fill:#351C0C;" d="M99.008,310.414c1.33-1.792,3.689-2.337,5.439-0.73c1.837,1.686,2.072,4.895,1.867,7.209
						c-0.011,0.128-0.034,0.256-0.05,0.385c-0.033,2.068-0.665,4.067-2.305,4.775c-0.752,0.572-1.679,0.754-2.781,0.293
						c-0.454-0.057-0.905-0.213-1.322-0.499c-0.689-0.472-1.122-1.155-1.391-1.926C96.803,317.114,97.154,312.912,99.008,310.414z"
						/>
					<path style="fill:#351C0C;" d="M110.602,329.479c-0.769,0.094-1.548-0.579-1.821-1.225c-0.184-0.437-0.194-0.872-0.077-1.281
						c0.131-0.761,0.624-1.516,1.21-2.044c0.993-0.895,2.151-1.32,3.461-1.476c1.081-0.129,2.039,1.075,1.927,2.112
						c0.107,0.641-0.055,1.346-0.506,1.827c-0.513,0.548-1.249,1.184-2.033,1.415C112.12,329.154,111.394,329.383,110.602,329.479z"
						/>
					<path style="fill:#351C0C;" d="M109.305,336.733c0.157-0.112,0.344-0.181,0.532-0.183c0.202-0.003,0.403,0.002,0.603,0.014
						c0.205-0.117,0.467-0.159,0.779-0.075c0.113,0.03,0.219,0.073,0.328,0.112c0.91-0.663,2.411,0.335,1.653,1.391
						c-0.145,0.202-0.275,0.418-0.399,0.641c-0.001,0.001-0.001,0.003-0.002,0.004c-0.118,0.213-0.228,0.433-0.334,0.657
						c-0.061,0.164-0.134,0.327-0.213,0.486c-0.113,0.301-0.246,0.59-0.399,0.856c-0.045,0.099-0.09,0.201-0.136,0.298
						c-0.062,0.129-0.141,0.228-0.227,0.309c-0.013,1.15-1.913,1.435-2.204,0.317c-0.066-0.113-0.116-0.238-0.125-0.377
						c-0.02-0.308-0.039-0.615-0.059-0.923c-0.125-0.73-0.319-1.446-0.53-2.159C108.392,337.49,108.772,336.927,109.305,336.733z"/>
				</g>
			</g>
			<g>
				<path style="fill:#A06944;" d="M96.421,302.467c0.061-0.531,0.384-1.027,0.939-1.106c4.717-0.672,12.686-0.5,16.704,2.415
					c0.919,0.667,1.803,1.432,2.658,2.264c3.661,3.21,6.942,7.58,9.142,11.683c1.442,2.689-2.312,4.781-4.033,2.357
					c-1.545-2.175-3.382-5.045-5.438-7.565c-1.066-1.168-2.189-2.28-3.356-3.32c-3.707-3.302-10.07-2.669-14.765-3.299
					C96.396,305.646,95.711,303.69,96.421,302.467z"/>
				<g>
					<path style="fill:#351C0C;" d="M113.616,305.272c0.165-0.298,0.338-0.593,0.528-0.879c0.155-0.234,0.346-0.408,0.553-0.539
						c0.009-0.02,0.016-0.04,0.025-0.06c0.392-0.848,1.449-0.617,1.871,0.028c0.619,0.346,1.026,1.036,0.782,1.933
						c-0.042,0.156-0.092,0.308-0.137,0.462c-0.259,1.732-0.667,3.594-1.744,4.995c-0.218,0.283-0.477,0.464-0.745,0.564
						c-1.018,0.685-2.667-0.133-2.605-1.435c0.058-1.209,0.317-2.379,0.74-3.492C113.057,306.297,113.301,305.768,113.616,305.272z"
						/>
					<path style="fill:#351C0C;" d="M99.627,299.69c0.814-0.156,1.655-0.005,2.33,0.637c1.255,1.193,1.315,3.461,0.582,4.934
						c-0.804,1.615-2.768,2.493-4.463,1.758c-0.25-0.109-0.473-0.252-0.682-0.412C94.496,304.869,95.861,298.931,99.627,299.69z"/>
					<path style="fill:#351C0C;" d="M122.037,318.675c0.491-0.811,1.79-1.302,2.526-1.576c0.177-0.066,0.342-0.065,0.499-0.037
						c0.256-0.248,0.728-0.288,0.941,0.096c0.81,1.46,1.161,3.792,0.305,5.358c-0.309,0.865-0.854,1.652-1.566,2.414
						c-0.262,0.28-0.56,0.361-0.836,0.316c-0.506,0.119-1.035-0.3-1.095-0.862c-0.099-0.935-0.317-1.848-0.613-2.74
						c-0.253-0.762-0.72-1.4-0.978-2.14C121.048,319.007,121.571,318.568,122.037,318.675z"/>
				</g>
			</g>
			<g>
				<path style="fill:#A06944;" d="M99.472,294.511c4.948-1.23,12.002-3.06,17.012-1.572c2.617,0.777,5.296,2.593,7.695,3.867
					c2.047,1.087,3.599,2.012,4.752,4.054c0.448,0.794,0.277,1.567-0.195,2.092c-0.215,0.765-0.909,1.369-1.822,1.032
					c-4.287-1.583-8.245-4.65-12.238-7.03c-0.242,0.561-0.763,1.007-1.576,1.052c-4.372,0.242-8.758,0.221-13.136,0.153
					C97.91,298.128,97.394,295.027,99.472,294.511z"/>
				<g>
					<path style="fill:#351C0C;" d="M116.201,291.254c0.625,0.232,1.098,0.772,1.012,1.573c-0.155,1.44-0.325,3.508-1.163,4.938
						c-0.094,0.212-0.193,0.424-0.3,0.633c-0.119,0.233-0.293,0.399-0.484,0.534c-0.031,0.046-0.057,0.094-0.09,0.138
						c-1.071,1.431-3.03,0.883-3.243-0.878c-0.27-2.233,0.441-4.576,1.715-6.403C114.306,290.846,115.437,290.736,116.201,291.254z"
						/>
					<path style="fill:#351C0C;" d="M100.173,294.231c0.376-0.736,1.055-1.384,1.802-1.698c1.534-0.759,3.138,0.222,3.46,1.929
						c0.171,0.906,0.11,1.905-0.216,2.793c-0.216,0.863-0.735,1.592-1.605,1.959c-1.222,0.669-2.8,0.461-3.547-0.926
						C99.391,297.032,99.543,295.466,100.173,294.231z"/>
					<path style="fill:#351C0C;" d="M128.59,299.423c0.034,0.061,0.057,0.124,0.088,0.186c0.027,0.027,0.061,0.042,0.086,0.073
						c0.057,0.071,0.106,0.14,0.157,0.209c0.453,0.412,0.875,0.857,1.296,1.329c0.704,0.79,1.561,1.546,1.278,2.699
						c-0.131,0.533-0.602,0.773-1.097,0.835c-0.847,0.107-1.663,0.11-2.507-0.022c-0.73-0.114-1.657-0.254-2.244-0.742
						c-1.405-1.169-0.011-3.428,0.736-4.567C126.892,298.646,128.103,298.546,128.59,299.423z"/>
				</g>
			</g>
			<g>
				<path style="fill:#A06944;" d="M102.795,284.765c1.622-2.148,3.273-4.275,4.911-6.41c0.798-1.04,1.999-1.221,2.894-0.646
					c0.087-0.169,0.195-0.328,0.336-0.463c0.189-0.922,0.885-1.715,2.025-1.636c2.436,0.169,5.722,0.509,7.798,2.115
					c0.181,0.096,0.365,0.186,0.538,0.294c1.816,1.137,1.061,3.932-1.083,3.998c-1.67,0.051-3.124-0.635-4.739-0.92
					c-1.133-0.2-2.261-0.176-3.267-0.533c0.068,0.171,0.136,0.342,0.204,0.513c0.43,1.082-0.297,2.005-1.238,2.373
					c-1.596,1.648-3.514,3.119-5.526,4.17C103.979,288.49,101.44,286.559,102.795,284.765z"/>
				<g>
					<path style="fill:#351C0C;" d="M109.122,275.405c1.202-0.507,2.587-0.053,3.27,1.072c0.076,0.124,0.149,0.249,0.225,0.374
						c0.921,0.775,1.278,2.245,1.898,3.258c0.742,1.365,0.382,3.299-1.066,4.065c-1.572,0.831-3.051,0.256-4.064-1.066
						c-0.394-0.514-0.767-1.048-1.076-1.618c-0.541-1.001-0.753-1.848-0.672-2.907c-0.01-0.029-0.021-0.057-0.032-0.086
						C107.164,277.268,108.006,275.876,109.122,275.405z"/>
					<path style="fill:#351C0C;" d="M105.499,286.776c-0.033-0.143-0.072-0.284-0.094-0.43c-0.012-0.07-0.019-0.143-0.035-0.211
						c-0.046-0.195-0.125-0.379-0.211-0.561c-0.005-0.015-0.011-0.029-0.016-0.044c-0.247-0.738-0.724-1.492-1.437-1.869
						c-0.491-0.26-1.023-0.402-1.578-0.427c-0.685-0.031-1.367,0.264-1.895,0.671c-0.34,0.221-0.609,0.513-0.805,0.877
						c-0.105,0.249-0.21,0.498-0.315,0.747c-0.144,0.834-0.27,1.628-0.027,2.459c0.158,0.54,0.414,1.079,0.687,1.573
						c0.7,1.264,2.231,1.767,3.584,1.458c0.665-0.151,1.243-0.613,1.648-1.137c0.431-0.557,0.672-1.213,0.681-1.923
						C105.692,287.566,105.621,287.164,105.499,286.776z"/>
					<path style="fill:#351C0C;" d="M120.115,278.158c-0.017-0.056-0.044-0.108-0.056-0.166c-0.167-0.803,0.463-1.342,1.229-1.229
						c0.856,0.127,1.497,0.912,2.117,1.462c0.593,0.525,1.421,1.056,1.421,1.944c0,1.6-2.279,2.409-3.561,2.48
						c-0.688,0.038-1.249-0.608-1.26-1.259c-0.017-1.027-0.001-2.046,0.08-3.07C120.091,278.261,120.105,278.211,120.115,278.158z"
						/>
				</g>
			</g>
			<path style="fill:#5B3510;" d="M97.516,303.13c-4.498-2.803-8.63-2.103-11.771,0.39c-1.113,0.782-2.012,1.79-2.731,2.946
				c-3.349,4.805-4.414,11.972-1.546,17.034c1.584,4.203,4.906,7.595,9.868,7.757C105.888,331.733,108.363,309.889,97.516,303.13z"
				/>
			<path style="fill:#8E5A33;" d="M97.791,317.281c0.008-0.402-0.034-0.792-0.114-1.168c0.105-0.886,0.045-1.792-0.226-2.677
				c-0.435-1.42-1.296-2.568-2.46-3.298c-0.503-0.376-1.086-0.68-1.776-0.87c-1.703-0.47-3.342,0.024-4.562,1.07
				c-0.716,0.492-1.331,1.136-1.78,1.894c-1.518,2.563-1.238,6.271,0.744,8.491c0.36,0.544,0.834,1.017,1.454,1.379
				c0.027,0.016,0.057,0.027,0.085,0.042c0.933,0.621,2.044,0.988,3.221,0.99c1.315,0.002,2.692-0.639,3.492-1.71
				C97.015,320.358,97.761,318.826,97.791,317.281z"/>
			<g>
				<path style="fill:#351C0C;" d="M98.053,280.733c-0.179-0.538-0.424-1.02-0.713-1.456c-1.239-2.054-3.249-3.504-5.829-3.539
					c-2.036-0.027-3.826,0.811-5.139,2.173c-0.832,0.629-1.443,1.472-1.647,2.563c-0.035,0.087-0.073,0.172-0.105,0.26
					c-0.613,1.677,0.409,3.752,1.876,4.611c1.43,0.836,3.851,0.766,4.947-0.638c0.335-0.346,0.368-0.425,0.099-0.237
					c0.117-0.085,0.226-0.181,0.341-0.269C94.143,286.767,99.268,284.387,98.053,280.733z M91.42,283.37c0,0-0.001,0-0.001,0
					C91.419,283.369,91.42,283.369,91.42,283.37C91.42,283.369,91.42,283.369,91.42,283.37z M91.321,283.353
					c-0.005-0.001-0.011-0.002-0.016-0.003c-0.02-0.037-0.041-0.071-0.061-0.116c0.008,0.006,0.016,0.012,0.024,0.018
					C91.285,283.284,91.301,283.315,91.321,283.353z M91.334,283.377c0.018,0.034,0.038,0.071,0.058,0.111
					c-0.024-0.032-0.047-0.067-0.071-0.109C91.326,283.378,91.33,283.378,91.334,283.377z"/>
				<g>
					<path style="fill:#6B3F1A;" d="M93.824,280.69c-4.354-1.042-8.998,0.87-11.251,4.777c-0.443,0.769-0.75,1.56-0.951,2.352
						c-0.704,1.93-1.006,4.057-0.844,6.111c0.208,2.629,1.31,4.956,2.923,6.728c0.224,0.455,0.464,0.897,0.742,1.308
						c2.033,3.007,5.755,4.507,9.299,3.425c3.296-1.007,5.162-3.806,6.305-6.849C103.749,292.047,102.001,282.647,93.824,280.69z"/>
					<path style="fill:#A06944;" d="M96.102,291.734c-0.193-1.433-0.939-2.748-2.211-3.514c-0.608-0.366-1.337-0.61-2.075-0.683
						c-0.208-0.036-0.42-0.062-0.652-0.066c-0.439-0.008-0.962,0.074-1.386,0.205c-1.149,0.356-2.213,1.151-2.814,2.206
						c-0.725,1.272-0.859,2.7-0.456,4.004c0.062,0.347,0.149,0.691,0.29,1.025c1.044,2.475,4.069,3.453,6.412,2.16
						c0.261-0.144,0.506-0.334,0.741-0.541c0.632-0.404,1.184-0.941,1.533-1.578C96.052,293.916,96.257,292.893,96.102,291.734z"/>
				</g>
			</g>
		</g>
		<g>
			<g>
				<path style="fill:#A06944;" d="M190.369,353.3c-1.046,0.285-2.179,0.44-3.146,0.948c-0.981,0.515-1.916,1.215-2.631,2.058
					c-0.742,0.875-0.933,2.085-0.18,3.03c0.692,0.868,1.985,1.219,2.977,0.594c0.776-0.488,1.487-1.052,2.219-1.603
					c0.752-0.565,1.327-1.299,2.118-1.809C193.369,355.457,192.352,352.76,190.369,353.3z"/>
				<path style="fill:#A06944;" d="M194.964,355.221c-0.537,0.178-1.043,0.186-1.549,0.518c-0.522,0.343-1.032,0.815-1.45,1.278
					c-0.784,0.87-1.489,1.838-2.015,2.884c-0.567,1.129-0.299,2.535,0.839,3.201c1.103,0.645,2.552,0.249,3.201-0.839
					c0.501-0.84,1.008-1.672,1.57-2.472c0.556-0.792,0.978-1.443,1.174-2.322C197.183,356.34,196.378,354.752,194.964,355.221z"/>
				<path style="fill:#A06944;" d="M197.765,355.921c-0.706,0.763-0.858,1.653-1.075,2.634c-0.192,0.866-0.495,1.698-0.78,2.536
					c-0.409,1.201,0.469,2.569,1.641,2.891c1.347,0.37,2.408-0.462,2.891-1.641c0.786-1.919,1.309-4.7-0.074-6.419
					C199.759,355.166,198.385,355.251,197.765,355.921z"/>
				<path style="fill:#A06944;" d="M238.347,354.361c-0.714-0.842-1.647-1.551-2.631-2.058c-0.974-0.502-2.097-0.662-3.146-0.948
					c-1.965-0.535-3.015,2.148-1.357,3.219c0.791,0.511,1.364,1.244,2.118,1.809c0.733,0.55,1.444,1.115,2.219,1.603
					c0.965,0.607,2.314,0.293,2.977-0.594C239.25,356.424,239.111,355.262,238.347,354.361z"/>
				<path style="fill:#A06944;" d="M230.974,355.073c-0.369-0.41-0.795-0.777-1.233-1.111c-0.611-0.466-1.091-0.462-1.766-0.686
					c-1.42-0.471-2.22,1.115-1.771,2.247c0.196,0.878,0.617,1.529,1.175,2.323c0.562,0.8,1.069,1.632,1.57,2.472
					c0.647,1.084,2.104,1.481,3.201,0.839c1.149-0.672,1.409-2.068,0.839-3.201C232.463,356.911,231.758,355.942,230.974,355.073z"
					/>
				<path style="fill:#A06944;" d="M226.25,356.611c-0.217-0.981-0.369-1.871-1.076-2.634c-0.624-0.673-1.994-0.756-2.602,0
					c-1.379,1.715-0.859,4.501-0.074,6.419c0.48,1.173,1.562,2.006,2.89,1.641c1.17-0.322,2.052-1.684,1.641-2.891
					C226.744,358.308,226.441,357.477,226.25,356.611z"/>
			</g>
			<g>
				<g>
					<path style="fill:#D19661;" d="M241.563,318.403c-1.425-3.309-3.036-6.533-4.596-9.78c-1.167-2.43-2.211-4.946-3.546-7.266
						c0.669-0.352,1.316-0.734,1.935-1.153c5.607-3.792,8.32-10.715,6.217-17.268c-1.754-5.467-5.818-8.303-10.083-11.236
						c1.801-2.886,2.77-6.151,2.588-9.7c-0.134-2.609-1.801-5.302-4.505-5.917c-2.639-0.601-5.546,0.387-6.93,2.82
						c-1.256,2.208-2.762,4.263-3.919,6.532c-0.08,0.158-0.154,0.32-0.228,0.481c-4.917-2.257-10.796-1.576-15.71,0.691
						c-0.248-0.388-0.517-0.76-0.789-1.131c-1.349-3.26-3.783-6.087-6.942-7.7c-4.359-2.225-9.791,1.455-8.423,6.475
						c0.916,3.361,2.547,6.362,4.728,8.927c-0.693,0.467-1.352,0.991-1.965,1.568c-5.158,1.727-9.372,5.604-9.784,11.541
						c-0.515,7.415,3.747,11.426,9.33,13.574c-0.327,1.479-0.655,2.958-0.982,4.437c-0.972,1.659-1.811,3.317-2.535,4.761
						c-3.109,6.199-5.828,12.557-6.863,19.452c-1.152,7.672-0.636,16.073,4.973,22.02c3.988,4.228,9.441,5.767,14.999,6.446
						c7.732,3.455,16.772,2.742,24.67-0.754c7.455-1.752,13.951-7.475,17.35-14.382c0.227-0.398,0.446-0.804,0.657-1.22
						C244.897,333.336,244.757,325.818,241.563,318.403z"/>
				</g>
				<g>
					<path style="fill:#EA8B3D;" d="M208.69,264.787c-0.073,0.313-0.139,0.626-0.192,0.937c-0.431,2.505-0.31,5.159,0.07,7.663
						c0.298,1.96,0.737,3.972,1.552,5.789c1.325,2.952,3.661,5.406,6.068,7.512c2.181,1.908,4.57,3.649,7.323,4.623
						c2.595,0.918,5.339,1.217,8.08,1.079c3.564-0.18,7.066-1.05,10.441-2.267c0.429-2.33,0.312-4.782-0.459-7.185
						c-1.754-5.467-5.818-8.303-10.083-11.236c1.801-2.886,2.77-6.151,2.588-9.7c-0.134-2.609-1.801-5.302-4.505-5.917
						c-2.639-0.601-5.546,0.387-6.93,2.82c-1.256,2.208-2.762,4.263-3.919,6.532c-0.08,0.158-0.154,0.32-0.228,0.481
						C215.444,264.515,212.022,264.248,208.69,264.787z"/>
					<path style="fill:#EA8B3D;" d="M201.651,338.582c-2.492-3.755-6.257-6.653-10.07-8.969c-3.786-2.3-7.982-3.967-12.392-4.343
						c-0.244,1.069-0.465,2.146-0.629,3.241c-1.152,7.672-0.636,16.073,4.973,22.02c3.988,4.228,9.441,5.767,14.999,6.446
						c2.161,0.966,4.427,1.595,6.739,1.94C206.436,351.966,205.604,344.538,201.651,338.582z"/>
					<path style="fill:#EA8B3D;" d="M241.155,317.49c-1.464,1.45-2.397,3.358-2.886,5.411c-1.264,5.313,0.033,11.471,3.012,16.005
						c0.139,0.212,0.288,0.422,0.439,0.63c3.147-6.945,2.878-14.085-0.159-21.133C241.431,318.097,241.29,317.795,241.155,317.49z"
						/>
				</g>
				<g>
					<path style="fill:#F2CBB1;" d="M219.912,290.01c-0.765-1.207-1.87-2.309-3.095-3.062c-0.166-0.102-0.286-0.171-0.38-0.222
						c-0.18-0.17-0.367-0.335-0.536-0.509c-1.625-1.665-3.278-2.696-5.621-2.91c-1.477-0.135-2.932,0.936-3.624,2.24
						c-1.257,0.865-2.498,1.778-3.413,2.945c-1.48,1.887-2.401,3.991-2.227,6.432c0.419,5.863,6.855,8.126,11.889,7.177
						C218.261,301.093,223.35,295.437,219.912,290.01z"/>
					<path style="fill:#F2CBB1;" d="M228.849,319.08c-0.694-0.966-1.923-1.711-3.162-1.286c-1.148,0.394-2.618,0.931-4.058,1.637
						c-2.959,0.141-4.816-1.85-5.324-4.899c-0.017-0.099-0.05-0.185-0.077-0.275c0.07-1.094,0.017-2.148-0.171-3.208
						c0.028-0.068,0.046-0.148,0.08-0.208c0.244-0.439,1.169-0.647,1.508-1.16c0.77-1.165,0.508-2.314-0.309-3.322
						c-2.726-3.363-8.126-1.82-10.832,0.536c-1.047,0.912-0.285,2.536,0.804,2.883c-0.264,1.803,0.201,3.888,0.746,5.771
						c-0.001,0.236-0.003,0.473-0.005,0.709c-0.191,0.217-0.347,0.49-0.436,0.836c-0.058,0.224-0.105,0.449-0.161,0.674
						c-0.368,0.231-0.684,0.585-0.877,1.093c-0.809,2.128-3.423,2.73-5.736,3.534c-1.124-0.593-2.832-0.205-3.306,1.273
						c-1.761,5.493-2.389,11.625,1.307,16.501c3.978,5.247,12.203,6.085,18.255,4.994
						C229.046,343.006,236.348,329.525,228.849,319.08z"/>
				</g>
			</g>
			<g>
				<path style="fill:#A06944;" d="M222.66,324.933c0.228-0.203,0.397-0.468,0.462-0.799c0.219-1.124,0.079-2.208-0.293-3.285
					c9.776-1.294,18.298-12.659,11.935-21.686c-0.602-0.854-1.8-0.131-1.384,0.809c3.319,7.503-1.529,14.956-8.768,17.468
					c-1.08,0.375-2.569,0.881-3.744,0.712c-3.755-0.539-3.753-4.486-2.999-7.113c0.936-3.262,4.075-4.419,5.823-7.021
					c0.473-0.704-0.306-1.536-1.045-1.36c-7.01,1.671-10.51,13.348-5.418,17.128c-0.013,0.033-0.033,0.06-0.044,0.095
					c-0.648,2.066-0.251,6.791,2.87,6.503c0.439,0.259,0.963,0.283,1.501,0.039C222.285,326.092,222.596,325.559,222.66,324.933z"/>
				<path style="fill:#A06944;" d="M207.65,319.06c0.822-1.793,0.973-4.047,0.609-6.477c-0.792-5.282-4.786-9.059-9.998-9.93
					c-0.932-0.156-1.327,1.141-0.396,1.437c3.703,1.179,6.467,4.016,7.312,7.836c1.112,5.026-0.768,8.617-6.329,8.125
					c-9.597-0.85-11.998-11.31-8.156-18.81c0.789-1.541-1.559-2.904-2.32-1.356c-2.482,5.046-2.862,10.894,0.108,15.857
					c2.602,4.347,7.714,7.721,12.899,7.273c0.451-0.039,0.87-0.108,1.273-0.191c-0.051,0.348-0.09,0.696-0.115,1.04
					c-0.291,0.701-0.615,1.389-1.087,2.039c-1.155,1.592,1.076,3.122,2.493,2.237c0.324,0.09,0.676,0.113,1.042,0.038
					c1.337-0.274,2.158-1.361,2.648-2.675c0.297-0.566,0.507-1.188,0.655-1.763c0.309-1.203,0.554-2.766-0.042-3.919
					C208.091,319.523,207.887,319.268,207.65,319.06z"/>
				<path style="fill:#A06944;" d="M224.287,267.314c0.148-0.594,0.371-1.171,0.626-1.736c0.203,0.203,0.383,0.426,0.511,0.686
					c0.279,0.564,0.1,1.126,0.215,1.72c0.135,0.701,1.199,1,1.662,0.439c1.148-1.392,0.158-3.808-1.43-4.535
					c0.319-0.454,0.663-0.889,1.052-1.278c0.614-0.613,1.31-1.125,2.07-1.544c0.725-0.4,1.496-0.52,2.06-1.141
					c0.382-0.421,0.248-1.152-0.344-1.302c-1.857-0.47-4.124,1.522-5.258,2.825c-1.439,1.653-2.198,3.527-2.361,5.706
					C223.038,267.841,224.122,267.973,224.287,267.314z"/>
				<path style="fill:#A06944;" d="M187.897,260.762c2.466,0.095,4.393,0.582,6.122,2.47c0.218,0.238,0.417,0.483,0.605,0.732
					c-1.025,0.896-1.656,2.175-1.621,3.592c0.035,1.392,1.042,4.094,2.833,3.624c0.274-0.072,0.485-0.347,0.481-0.631
					c-0.018-1.077-1.1-1.654-1.299-2.736c-0.155-0.843,0.1-1.66,0.6-2.309c0.621,1.107,1.128,2.268,1.757,3.429
					c0.436,0.805,1.748,0.442,1.725-0.467c-0.119-4.685-6.606-11.432-11.551-8.986C186.905,259.798,187.258,260.737,187.897,260.762
					z"/>
				<path style="fill:#A06944;" d="M199.977,281.763c0.268,0.953,0.902,1.785,1.752,2.332c0.502,0.323,1.206,0.233,1.659-0.117
					c0.432-0.334,0.589-0.814,0.554-1.33c0.047-0.142,0.076-0.289,0.056-0.441c-0.156-1.23-0.78-2.392-1.967-2.913
					c-0.152-0.067-0.304-0.106-0.455-0.131c-0.634-0.338-1.449-0.125-1.878,0.43c-0.476,0.616-0.392,1.423,0.119,1.993
					C199.869,281.645,199.924,281.703,199.977,281.763z"/>
				<path style="fill:#A06944;" d="M218.484,283.546c0.639,0.338,1.303,0.214,1.846-0.238c0.282-0.235,0.528-0.5,0.781-0.759
					c0.265-0.203,0.493-0.456,0.672-0.738c0.25-0.302,0.501-0.603,0.73-0.928c0.69-0.981-0.228-2.435-1.371-2.388
					c-0.681,0.028-1.3,0.225-1.841,0.643c-0.558,0.431-0.826,0.941-0.951,1.582c-0.228,0.333-0.428,0.691-0.566,1.106
					C217.581,282.438,217.914,283.245,218.484,283.546z"/>
				<path style="fill:#A06944;" d="M216.847,294.247c0.305-0.593-0.305-1.194-0.896-0.896c-1.177,0.594-2.244,1.271-3.562,0.454
					c-1.066-0.661-1.092-1.608-1.108-2.616c0.402-0.06,0.783-0.296,0.943-0.66c0.146-0.177,0.245-0.392,0.235-0.614
					c-0.025-0.564-0.433-0.946-0.985-0.985c-0.526-0.037-1.052-0.061-1.579-0.082c-0.445-0.017-0.921,0.339-1.021,0.777
					c-0.098,0.431,0.055,0.991,0.487,1.196c0.141,0.067,0.285,0.127,0.43,0.179c-0.082,0.338-0.093,0.699-0.046,1.064
					c-0.075,0.66-0.237,1.288-0.65,1.544c-0.721,0.447-2.052,0.806-2.839,0.434c-0.83-0.393-1.563,0.813-0.729,1.248
					c1.389,0.724,3.175,0.351,4.485-0.423c0.279-0.165,0.478-0.393,0.643-0.647c0.253,0.338,0.538,0.629,0.834,0.836
					C212.981,296.103,215.906,296.077,216.847,294.247z"/>
			</g>
		</g>
		<g>
			<g>
				<path style="fill:#E94170;" d="M458.173,236.333c-2.09-3.086-4.714-4.133-4.025-8.444c0.397-2.484,1.058-4.85,0.599-7.393
					c-0.977-5.406-4.865-5.933-9.319-7.361c-6.106-1.958-7.585-10.748-9.482-16.066c-1.154-3.235-5.475-2.541-5.818,0.787
					c-0.482,4.682-1.11,9.482-2.175,14.162c-0.485,0.911-0.748,1.947-0.744,2.963c-1.423,5.195-3.477,10.172-6.598,14.583
					c-1.214,1.715,0.3,3.708,2.018,4.029c0.07,3.519,2.213,6.531,5.264,8.417c8.747,5.408,20.486,3.15,27.411,11.893
					c1.755,2.216,4.63,0.094,4.905-2.032C460.882,246.669,461.265,240.897,458.173,236.333z"/>
				<g>
					<path style="fill:#601437;" d="M433.803,200.244c-0.232-0.97-1.893-0.791-1.78,0.241c1.094,9.982-5.627,20.569-8.943,29.607
						c-0.352,0.958,1.017,1.36,1.535,0.647c3.298-4.544,5.379-10.027,7.067-15.352C433.209,210.572,435.01,205.289,433.803,200.244z
						"/>
					<path style="fill:#601437;" d="M437.344,209.986c-0.921,4.268-2.501,8.149-4.814,11.859c-1.8,2.887-4.414,5.398-5.527,8.639
						c-0.401,1.167,1.355,1.855,1.959,0.826c4.112-7.002,9.148-12.67,9.901-21.119C438.94,209.325,437.527,209.138,437.344,209.986z
						"/>
					<path style="fill:#601437;" d="M430.543,230.451c-0.825,0.909,0.229,2.439,1.353,1.753
						c5.986-3.653,10.832-10.147,14.402-16.059c0.467-0.772-0.695-1.733-1.284-0.991c-2.172,2.737-4.48,5.418-6.875,7.963
						C435.727,225.678,432.896,227.857,430.543,230.451z"/>
					<path style="fill:#601437;" d="M457.088,241.021c0.849,0.418,1.567-0.773,0.747-1.279c-3.415-2.107-6.707-2.74-10.646-3.152
						c-4.956-0.519-9.964-1.191-14.949-1.426c6.621-0.651,13.43-2.92,18.951-6.556c0.811-0.534,0.112-1.659-0.747-1.279
						c-6.616,2.926-12.73,4.703-19.889,5.689c-1.111,0.153-1.038,1.788-0.168,2.187c-0.85,0.405-0.953,1.963,0.157,2.135
						C438.886,238.633,449.395,237.231,457.088,241.021z"/>
					<path style="fill:#601437;" d="M458.447,248.45c-1.746-3.332-6.048-4.342-9.39-5.466c-5.736-1.929-11.675-4.313-17.628-5.405
						c-1-0.183-1.823,1.283-0.749,1.778c4.04,1.862,8.44,2.958,12.685,4.266c4.418,1.36,10.557,2.336,13.816,5.806
						C457.826,250.116,458.861,249.241,458.447,248.45z"/>
				</g>
			</g>
			<g>
				<path style="fill:#E94170;" d="M396.523,242.165c2.335-2.589,5.142-4.86,8.217-6.511c1.801-0.967,3.724-1.574,5.669-2.176
					c2.007-0.621,4.044-1.208,6.109-1.624c-0.021-0.602-0.184-1.229-0.535-1.865c-1.291-5.474-7.152-8.882-12.589-7.215
					c-2.369,0.727-4.12,2.09-5.425,3.814c-3.877,3.946-7.124,13.323-3.668,18.373C394.987,243.976,395.735,243.039,396.523,242.165z
					"/>
				<g>
					<path style="fill:#601437;" d="M396.668,230.988c-1.437,3.31-2.325,7.56-0.973,11.05c0.351,0.906,1.878,0.88,1.823-0.247
						c-0.174-3.587-0.539-6.706,0.463-10.25C398.196,230.782,397,230.224,396.668,230.988z"/>
					<path style="fill:#601437;" d="M401.065,227.154c-0.099-0.853-1.223-0.851-1.326,0c-0.334,2.76-0.456,5.498-0.507,8.276
						c-0.028,1.512-0.195,3.538,1.654,3.865c0.483,0.085,1.052-0.212,1.021-0.778c-0.094-1.717-0.382-3.399-0.414-5.156
						C401.455,231.274,401.305,229.227,401.065,227.154z"/>
					<path style="fill:#601437;" d="M405.026,223.87c-0.056-0.787-1.325-1.089-1.476-0.2c-0.378,2.216-0.527,4.445-0.521,6.694
						c0.006,1.996-0.194,4.172,0.779,5.96c0.345,0.634,1.245,0.43,1.454-0.19c0.61-1.806,0.137-3.885,0.056-5.77
						C405.225,228.199,405.179,226.032,405.026,223.87z"/>
					<path style="fill:#601437;" d="M410.315,223.682c-0.023-1.138-1.653-1.107-1.746,0c-0.151,1.793-0.247,3.572-0.23,5.372
						c0.014,1.506-0.104,2.981,0.493,4.376c0.311,0.726,1.405,0.449,1.596-0.209c0.416-1.436,0.088-3.04,0.039-4.526
						C410.41,227.025,410.349,225.354,410.315,223.682z"/>
					<path style="fill:#601437;" d="M415.218,230.464c-0.09-0.983-0.149-1.963-0.16-2.95c-0.008-0.728-1.218-0.956-1.324-0.179
						c-0.142,1.037-0.27,2.082-0.301,3.129c-0.028,0.965-0.122,2.076,0.409,2.913c0.373,0.588,1.189,0.439,1.414-0.185
						C415.56,232.351,415.299,231.345,415.218,230.464z"/>
				</g>
			</g>
			<g>
				<g>
					<g>
						<g>
							<path style="fill:#601437;" d="M387.431,263.335c0.59,0.022,1.14-0.101,1.65-0.369c0.531-0.173,0.991-0.468,1.379-0.886
								c0.418-0.388,0.713-0.847,0.886-1.379c0.268-0.51,0.391-1.061,0.369-1.65c-0.051-0.38-0.102-0.759-0.153-1.139
								c-0.203-0.726-0.571-1.356-1.102-1.89c-0.289-0.223-0.578-0.447-0.867-0.67c-0.668-0.387-1.389-0.583-2.162-0.585
								c-0.59-0.022-1.14,0.101-1.65,0.369c-0.531,0.173-0.991,0.468-1.379,0.886c-0.418,0.388-0.713,0.848-0.886,1.379
								c-0.268,0.51-0.391,1.061-0.369,1.65c0.051,0.38,0.102,0.759,0.153,1.139c0.203,0.726,0.571,1.356,1.102,1.89
								c0.289,0.223,0.578,0.447,0.867,0.67C385.938,263.137,386.658,263.332,387.431,263.335L387.431,263.335z"/>
						</g>
						<g>
							<path style="fill:#F4B0D3;" d="M387.106,256.434c-0.042-0.129-0.113-0.24-0.215-0.334c-0.03-0.041-0.07-0.074-0.118-0.097
								c-0.102-0.094-0.222-0.157-0.36-0.189c-0.104-0.025-0.256-0.047-0.333-0.048c-0.137-0.002-0.274,0.03-0.409,0.053
								c-0.084,0.035-0.168,0.071-0.252,0.106c-0.123,0.066-0.222,0.157-0.296,0.272c-0.065,0.066-0.111,0.144-0.136,0.233
								c-0.066,0.126-0.096,0.262-0.091,0.407c0.012,0.094,0.025,0.187,0.038,0.281c0.035,0.084,0.071,0.168,0.106,0.252
								c0.066,0.123,0.157,0.222,0.272,0.296c0.102,0.093,0.222,0.156,0.359,0.189c0.025,0.004,0.049,0.007,0.074,0.011
								c0.103,0.015,0.206,0.029,0.31,0.042c0.056-0.005,0.112-0.013,0.168-0.022c0.152-0.02,0.177-0.025,0.317-0.084
								c0.131-0.043,0.245-0.116,0.341-0.219c0.059-0.074,0.117-0.149,0.174-0.225c0.035-0.083,0.07-0.165,0.105-0.248
								c0.043-0.138,0.049-0.276,0.018-0.414C387.177,256.602,387.153,256.515,387.106,256.434z"/>
						</g>
					</g>
					<g>
						<path style="fill:#F978AD;" d="M431.425,232.024c-0.492-3.003-3.438-3.99-5.993-3.428c-0.29-0.051-0.601-0.05-0.93,0.023
							c-10.834,2.398-22.575,6.762-30.349,15.071c-6.613,7.068-9.652,19.113-1.417,26.239c8.288,7.171,20.279,2.563,26.348-5.1
							c3.491-4.408,5.619-9.55,7.848-14.664C429.529,244.208,432.513,238.669,431.425,232.024z"/>
						<g>
							<g>
								<path style="fill:#601437;" d="M405.246,253.558c-0.351-0.203-0.759-0.39-1.163-0.467c-0.732-0.139-1.431-0.191-2.157,0.034
									c-0.316,0.098-0.66,0.248-0.953,0.409c-0.553,0.303-0.926,0.793-1.294,1.285c-0.249,0.429-0.39,0.888-0.435,1.372
									c-0.073,0.301-0.126,0.606-0.142,0.915c-0.003,0.065-0.003,0.127,0.001,0.191c0.018,0.32,0.056,0.689,0.141,1.002
									c0.176,0.641,0.523,1.225,0.975,1.708c0.457,0.489,1.062,0.828,1.695,1.031c0.57,0.182,1.091,0.178,1.662,0.101
									c0.577-0.078,1.124-0.23,1.62-0.561c0.578-0.386,1.09-0.854,1.442-1.464c0.727-1.257,0.769-2.822,0.051-4.093
									C406.362,254.445,405.82,253.89,405.246,253.558z"/>
								<path style="fill:#F4B0D3;" d="M405.051,254.444c-0.385-0.358-0.982-0.492-1.451-0.199
									c-0.263,0.165-0.478,0.415-0.553,0.723c-0.014,0.059-0.019,0.129-0.026,0.184c-0.009,0.067-0.027,0.133-0.019,0.2
									c-0.006,0.155,0.027,0.3,0.097,0.434c0.046,0.14,0.123,0.261,0.233,0.363c0.042,0.039,0.09,0.076,0.14,0.111
									c0.164,0.204,0.426,0.331,0.674,0.364c0.335,0.045,0.64-0.056,0.886-0.29C405.553,255.839,405.586,254.942,405.051,254.444z
									"/>
							</g>
							<path style="fill:#601437;" d="M400.693,262.388c-1.426,0.821-2.302,2.11-3.94,2.695c-1.632,0.582-3.115,0.262-4.778,0.359
								c-0.726,0.042-0.958,0.934-0.362,1.339c2.835,1.93,9.368-0.012,10.266-3.482
								C402.054,262.619,401.308,262.033,400.693,262.388z"/>
							<path style="fill:#601437;" d="M403.142,240.702c-0.643-0.311-1.165,0.416-0.737,0.955c3.338,4.202,7.508,6.268,8.922,11.907
								c1.333,5.316-0.036,10.524-0.23,15.857c-0.043,1.171,1.67,1.347,1.997,0.27C416.452,258.643,414.321,246.115,403.142,240.702
								z"/>
							<path style="fill:#601437;" d="M411.002,241.355c1.723,3.541,4.89,5.923,5.812,9.891c0.194,0.837,1.468,0.637,1.476-0.2
								c0.043-4.277-3.824-7.208-6.124-10.372C411.659,239.977,410.617,240.565,411.002,241.355z"/>
							<path style="fill:#601437;" d="M416.114,237.77c-0.788-0.354-1.486,0.765-0.692,1.183c1.874,0.987,3.093,2.569,3.934,4.485
								c0.706,1.609,0.909,3.561,1.914,5.002c0.37,0.53,1.112,0.311,1.174-0.318c0.203-2.055-0.913-4.573-1.956-6.318
								C419.436,240.043,417.995,238.616,416.114,237.77z"/>
							<path style="fill:#601437;" d="M420.665,234.462c-0.724-0.52-1.606,0.637-0.951,1.232c1.537,1.396,2.749,3.161,3.431,5.133
								c0.561,1.624,0.288,3.432,0.999,4.956c0.265,0.568,1.105,0.481,1.393,0c1.048-1.751,0.129-4.491-0.616-6.222
								C424.009,237.442,422.527,235.8,420.665,234.462z"/>
							<path style="fill:#601437;" d="M428.049,235.579c-0.456-0.992-1.218-1.902-2.346-2.076c-0.591-0.092-1.113,0.775-0.451,1.07
								c0.957,0.428,1.184,1.817,1.471,2.725c0.316,1.002,0.478,2.187,1.21,2.967c0.387,0.412,1.195,0.231,1.311-0.346
								C429.528,238.507,428.632,236.848,428.049,235.579z"/>
						</g>
					</g>
				</g>
				<g>
					<path style="fill:#E94170;" d="M435.662,257.556c-0.028-1.734-0.106-3.422-1.497-4.649c-1.586-1.4-3.797-1.019-5.712-0.902
						c-2.649,0.162-5.302,0.296-7.948,0.508c-0.957,0.077-1.68,0.427-2.198,0.917c-2.225-1.013-4.842,1.712-2.756,3.646
						c3.079,2.856,17.468,16.451,19.837,7.174C435.908,262.218,435.697,259.647,435.662,257.556z"/>
					<g>
						<path style="fill:#601437;" d="M433.037,261.794c-5.78-1.759-10.413-5.273-15.738-8.072c-0.855-0.449-1.517,0.732-0.747,1.279
							c3.026,2.147,6.207,4.117,9.399,6.007c2.168,1.284,4.532,2.683,7.086,1.916C433.595,262.756,433.592,261.963,433.037,261.794z
							"/>
						<path style="fill:#601437;" d="M418.944,254.032c4.279,1.821,9.46,3.05,14.072,1.874c0.6-0.153,0.396-0.931-0.135-0.999
							c-4.576-0.583-9.022-0.666-13.536-1.825C418.799,252.942,418.385,253.794,418.944,254.032z"/>
					</g>
				</g>
			</g>
		</g>
	</g>
</g>
</svg>
