<svg width="639" height="613" viewBox="0 0 639 613" fill="none" xmlns="http://www.w3.org/2000/svg">
<path d="M514.195 410.195C577.901 402.663 621.116 359.969 621.116 317.797" stroke="#252F3B" stroke-width="10" stroke-linecap="round"/>
<path d="M514.195 410.195C577.901 402.663 621.116 359.969 621.116 317.797" stroke="#252F3B" stroke-width="10" stroke-linecap="round"/>
<path d="M124.497 405.675C60.7908 398.143 17.5755 355.449 17.5761 313.277" stroke="#252F3B" stroke-width="10" stroke-linecap="round"/>
<path d="M124.497 405.675C60.7908 398.143 17.5755 355.449 17.5761 313.277" stroke="#252F3B" stroke-width="10" stroke-linecap="round"/>
<path d="M290.966 609.221V504.557H243.912V579.906C226.766 588.034 191.34 593.165 186.802 605.111C182.264 617.057 254.354 612.829 290.966 609.221Z" fill="#252F3B"/>
<path d="M351.062 609.695V518.113H397.403V584.044C414.289 591.156 449.179 595.646 453.648 606.099C458.117 616.551 387.119 612.851 351.062 609.695Z" fill="#273547"/>
<path d="M265.163 201.348C243.756 215.695 241.779 254.623 245.314 262.268C224.496 259.248 185.713 279.929 182.484 282.769C168.638 294.946 163.139 311.275 161.274 324.489C148.901 326.566 129.556 334.117 122.979 342.046C120.034 345.596 86.9409 368.947 96.6619 428.034C97.0873 430.62 110.801 467.866 135.841 481.175C137.608 482.114 163.925 498.071 196.722 489.859C224.707 524.405 259.999 521.573 264.476 520.818C268.954 520.063 292.166 518.459 315.537 494.861C320.087 499.392 329.559 508.151 340.085 514.494C351.279 521.24 375.893 522.832 386.236 522.612C409.985 519.573 425.907 509.964 445.349 488.254C445.349 488.254 467.899 489.822 481.583 486.272C496.089 482.508 515.558 468.621 515.558 468.621C541.382 443.514 541.226 398.418 540.681 392.619C536.753 350.805 503.578 323.545 457.624 319.392C453.401 292.02 430.816 265.591 384.567 261.532C384.567 261.532 383.801 246.591 380.639 237.652C377.768 229.534 370.035 218.207 370.035 218.207C352.065 195.554 325.376 188.664 310.136 188.286C291.086 187.814 272.476 196.447 265.163 201.348Z" fill="white"/>
<path d="M245.314 262.268C248.849 269.914 262.127 290.655 298.844 289.471C331.051 288.433 340.635 269.277 339.594 260.211C339.333 257.933 337.283 240.165 322.41 235.197C287.649 223.588 269.385 256.057 296.585 271.16M245.314 262.268C241.779 254.623 243.756 215.695 265.163 201.348C272.476 196.447 291.086 187.814 310.136 188.286C325.376 188.664 352.065 195.554 370.035 218.207C370.035 218.207 377.768 229.534 380.639 237.652C383.801 246.591 384.567 261.532 384.567 261.532C430.816 265.591 453.401 292.02 457.624 319.392C503.578 323.545 536.753 350.805 540.681 392.619C541.226 398.418 541.382 443.514 515.558 468.621C515.558 468.621 496.089 482.508 481.583 486.272C467.899 489.822 445.349 488.254 445.349 488.254C425.907 509.964 409.985 519.573 386.236 522.612C375.893 522.832 351.279 521.24 340.085 514.494C329.559 508.151 320.087 499.392 315.537 494.861C292.166 518.459 268.954 520.063 264.476 520.818C259.999 521.573 224.707 524.405 196.722 489.859C163.925 498.071 137.608 482.114 135.841 481.175C110.801 467.866 97.0873 430.62 96.6619 428.034C86.9409 368.947 120.034 345.596 122.979 342.046C129.556 334.117 148.901 326.566 161.274 324.489C163.139 311.275 168.638 294.946 182.484 282.769C185.713 279.929 224.496 259.248 245.314 262.268Z" stroke="#273547" stroke-width="8" stroke-linecap="round"/>
<path d="M284.646 420.215C284.646 420.215 294.614 437.145 305.148 436.777C315.254 436.424 324.179 420.215 324.179 420.215" stroke="#273547" stroke-width="5" stroke-linecap="round"/>
<path d="M200.04 391.597C200.04 391.597 214.811 366.378 231.666 366.745C247.835 367.098 261.712 391.597 261.712 391.597" stroke="#273547" stroke-width="8" stroke-linecap="round"/>
<path d="M347.9 391.599C347.9 391.599 360.551 365.241 382.689 365.241C398.862 365.241 414.316 391.599 414.316 391.599" stroke="#273547" stroke-width="8" stroke-linecap="round"/>
<path d="M120.499 199.489C118.005 200.081 115.397 200.638 112.674 201.159C98.6025 203.789 87.9102 202.941 80.5965 198.615C76.8926 196.192 74.5408 193.071 73.5414 189.253C73.3457 188.505 73.2041 187.723 73.1168 186.907C72.3631 180.815 75.625 175.525 82.9025 171.037C90.1696 166.511 101.464 162.428 116.785 158.79L120.17 157.987C117.426 149.272 114.325 143.047 110.866 139.311C107.408 135.575 104.244 133.609 101.375 133.412C98.5455 133.206 96.1808 133.328 94.2805 133.779C92.6573 134.165 91.071 134.771 89.5216 135.599C86.1266 137.409 83.1411 139.497 80.5651 141.865C78.0183 144.184 76.137 146.073 74.9211 147.533C73.4985 149.166 71.8371 150.209 69.9368 150.66C67.8386 151.158 65.8312 150.799 63.9147 149.582C62.1565 148.327 61.025 146.735 60.5201 144.806C59.9741 142.72 60.3358 140.648 61.6054 138.59C63.3745 135.871 66.0826 132.802 69.7298 129.386C73.4165 125.96 77.1605 123.315 80.9616 121.451C84.7628 119.587 88.0094 118.335 90.7015 117.696C93.7103 116.982 96.8565 116.632 100.14 116.646C108.506 116.96 115.113 119.467 119.96 124.17C124.846 128.863 128.618 134.678 131.275 141.615C133.921 148.513 136.187 155.563 138.073 162.767L138.614 164.833C140.302 171.122 142.184 177.511 144.261 184L144.354 184.355C144.869 186.323 144.718 188.157 143.902 189.856C142.997 191.701 141.532 193.011 139.505 193.784L138.927 193.984C136.743 194.796 133.835 195.737 130.205 196.808C126.585 197.918 123.35 198.812 120.499 199.489ZM115.515 184.303C118.92 183.495 122.69 182.474 126.824 181.242C125.995 178.554 125.215 175.896 124.485 173.268C112.262 176.212 103.607 178.811 98.5202 181.064C93.4332 183.317 90.4532 184.944 89.58 185.946C90.4472 186.367 92.2954 186.681 95.1247 186.887C97.9436 187.054 101.255 186.853 105.059 186.285C108.902 185.706 112.388 185.046 115.515 184.303Z" fill="#EFFF08"/>
<path d="M492.466 184.412C491.647 184.051 490.127 183.224 487.907 181.933C485.723 180.658 483.355 178.879 480.803 176.597C478.251 174.315 475.966 171.484 473.947 168.104C471.929 164.724 470.611 160.742 469.993 156.158C469.43 151.553 470.028 146.328 471.787 140.482C472.854 137.175 474.055 134.149 475.39 131.405C476.619 128.88 477.953 126.603 479.394 124.572C484.852 116.98 491.254 111.628 498.602 108.516C502.925 106.602 507.187 105.371 511.387 104.825C515.642 104.259 519.62 104.215 523.321 104.693C527.041 105.135 530.185 105.923 532.753 107.056C538.225 109.472 542.503 112.716 545.586 116.788C548.687 120.824 550.457 125.317 550.897 130.267C551.375 135.233 550.367 140.278 547.874 145.4C546.966 147.266 545.522 148.562 543.541 149.288C541.56 150.013 539.639 149.965 537.777 149.144C535.879 148.306 534.646 146.983 534.078 145.177C533.527 143.334 533.566 141.395 534.194 139.361C535.497 134.825 535.159 130.92 533.18 127.646C531.256 124.352 528.693 121.999 525.491 120.585C524.449 120.125 523.325 119.74 522.119 119.43C517.259 118.174 511.458 118.991 504.715 121.881C497.866 124.992 492.625 130.279 488.993 137.743C487.996 139.792 487.113 142.024 486.344 144.441C484.816 149.811 484.749 154.315 486.145 157.954C487.54 161.592 489.455 164.393 491.891 166.357C494.344 168.285 496.706 169.75 498.977 170.752C500.615 171.475 502.212 171.958 503.767 172.2C507.543 172.711 510.895 172.235 513.823 170.772C516.751 169.308 519.05 167.278 520.72 164.682C521.832 162.862 523.163 161.427 524.714 160.378C526.319 159.309 528.114 159.012 530.098 159.488L531.298 159.951C532.787 160.608 533.958 161.592 534.813 162.903C535.841 164.601 536.012 166.432 535.327 168.397L534.422 170.397C531.324 176.764 526.758 181.593 520.724 184.886C512.569 189.286 503.149 189.128 492.466 184.412Z" fill="white"/>
<path d="M291.564 134.765L284.125 136.468C282.146 136.938 280.213 136.624 278.328 135.524C276.611 134.427 275.5 132.914 274.995 130.985L274.949 130.808C270.238 110.561 266.731 94.1888 264.426 81.691C262.606 72.0051 261.618 65.2574 261.462 61.4479C261.357 58.797 261.568 57.0327 262.095 56.1549C263.623 53.158 265.817 51.2574 268.676 50.4531C271.525 49.6094 273.424 49.0748 274.374 48.8492C278.373 47.8997 282.579 47.3401 286.991 47.1704C292.406 46.9718 296.763 47.1498 300.062 47.7045C304.355 48.5247 307.641 49.7514 309.918 51.3848C312.186 52.9787 313.649 54.471 314.307 55.8617C314.965 57.2524 315.413 58.4004 315.65 59.3058C315.835 60.0143 315.946 60.6779 315.982 61.2966C316.333 66.8158 313.535 71.8702 307.588 76.4599C310.684 77.5227 313.47 78.9307 315.947 80.6839C321.292 84.5575 324.779 89.604 326.407 95.8235C326.809 97.3587 327.107 98.9812 327.302 100.691C327.815 106.506 327.015 111.4 324.901 115.372C322.826 119.335 319.936 122.592 316.231 125.145C312.516 127.657 308.458 129.666 304.058 131.171C299.648 132.636 295.483 133.834 291.564 134.765ZM289.084 119.988C297.279 118.042 303.313 115.794 307.187 113.244C311.188 110.538 312.927 106.738 312.403 101.845C312.306 100.99 312.154 100.169 311.948 99.3821C311.206 96.5479 309.676 94.3188 307.359 92.6949C301.608 88.876 292.888 87.8525 281.199 89.6244C283.188 99.3121 285.401 109.532 287.837 120.284L289.084 119.988ZM278.193 74.283C283.423 72.4141 288.041 70.4603 292.049 68.4216C296.086 66.3342 298.861 64.4838 300.373 62.8705C297.616 61.978 293.893 61.6496 289.203 61.8852C284.503 62.0814 280.549 62.5602 277.342 63.3216L276.511 63.519C276.804 66.0835 277.365 69.6715 278.193 74.283Z" fill="#FF9C00"/>
</svg>
