<svg width="639" height="613" viewBox="0 0 639 613" fill="none" xmlns="http://www.w3.org/2000/svg">
<path d="M514.19 410.194C577.896 402.661 621.111 359.967 621.11 317.795" stroke="#252F3B" stroke-width="10" stroke-linecap="round"/>
<path d="M514.19 410.194C577.896 402.661 621.111 359.967 621.11 317.795" stroke="#252F3B" stroke-width="10" stroke-linecap="round"/>
<path d="M124.497 405.675C60.7913 398.143 17.576 355.449 17.5766 313.277" stroke="#252F3B" stroke-width="10" stroke-linecap="round"/>
<path d="M124.497 405.675C60.7913 398.143 17.576 355.449 17.5766 313.277" stroke="#252F3B" stroke-width="10" stroke-linecap="round"/>
<path d="M290.966 609.221V504.557H243.912V579.906C226.766 588.034 191.341 593.165 186.803 605.111C182.265 617.057 254.354 612.829 290.966 609.221Z" fill="#252F3B"/>
<path d="M351.057 609.693V518.112H397.399V584.042C414.285 591.155 449.174 595.644 453.643 606.097C458.112 616.55 387.115 612.85 351.057 609.693Z" fill="#273547"/>
<path d="M265.163 201.348C243.757 215.695 241.779 254.623 245.314 262.268C224.497 259.248 185.713 279.929 182.484 282.769C168.639 294.946 163.14 311.275 161.275 324.489C148.901 326.566 129.557 334.117 122.979 342.046C120.034 345.596 86.9414 368.947 96.6624 428.034C97.0878 430.62 110.802 467.866 135.842 481.175C137.609 482.114 163.925 498.071 196.723 489.859C224.708 524.405 259.999 521.573 264.477 520.818C268.954 520.063 292.167 518.459 315.537 494.861C320.087 499.392 329.559 508.151 340.085 514.494C351.28 521.24 375.894 522.832 386.237 522.612C409.985 519.573 425.907 509.964 445.349 488.254C445.349 488.254 467.9 489.822 481.583 486.272C496.09 482.508 515.558 468.621 515.558 468.621C541.383 443.514 541.226 398.418 540.682 392.619C536.754 350.805 503.578 323.545 457.624 319.392C453.401 292.02 430.817 265.591 384.568 261.532C384.568 261.532 383.802 246.591 380.64 237.652C377.768 229.534 370.035 218.207 370.035 218.207C352.065 195.554 325.376 188.664 310.136 188.286C291.087 187.814 272.476 196.447 265.163 201.348Z" fill="white"/>
<path d="M245.314 262.268C248.849 269.914 262.128 290.655 298.845 289.471C331.052 288.433 340.635 269.277 339.594 260.211C339.333 257.933 337.284 240.165 322.411 235.197C287.65 223.588 269.386 256.057 296.586 271.16M245.314 262.268C241.779 254.623 243.757 215.695 265.163 201.348C272.476 196.447 291.087 187.814 310.136 188.286C325.376 188.664 352.065 195.554 370.035 218.207C370.035 218.207 377.768 229.534 380.64 237.652C383.802 246.591 384.568 261.532 384.568 261.532C430.817 265.591 453.401 292.02 457.624 319.392C503.578 323.545 536.754 350.805 540.682 392.619C541.226 398.418 541.383 443.514 515.558 468.621C515.558 468.621 496.09 482.508 481.583 486.272C467.9 489.822 445.349 488.254 445.349 488.254C425.907 509.964 409.985 519.573 386.237 522.612C375.894 522.832 351.28 521.24 340.085 514.494C329.559 508.151 320.087 499.392 315.537 494.861C292.167 518.459 268.954 520.063 264.477 520.818C259.999 521.573 224.708 524.405 196.723 489.859C163.925 498.071 137.609 482.114 135.842 481.175C110.802 467.866 97.0878 430.62 96.6624 428.034C86.9414 368.947 120.034 345.596 122.979 342.046C129.557 334.117 148.901 326.566 161.275 324.489C163.14 311.275 168.639 294.946 182.484 282.769C185.713 279.929 224.497 259.248 245.314 262.268Z" stroke="#273547" stroke-width="8" stroke-linecap="round"/>
<path d="M284.641 420.213C284.641 420.213 294.609 437.143 305.144 436.775C315.249 436.422 324.175 420.213 324.175 420.213" stroke="#273547" stroke-width="5" stroke-linecap="round"/>
<path d="M200.04 391.597C200.04 391.597 214.811 366.378 231.666 366.745C247.835 367.098 261.712 391.597 261.712 391.597" stroke="#273547" stroke-width="8" stroke-linecap="round"/>
<path d="M347.895 391.597C347.895 391.597 360.546 365.239 382.684 365.239C398.857 365.239 414.311 391.597 414.311 391.597" stroke="#273547" stroke-width="8" stroke-linecap="round"/>
<path d="M120.499 199.489C118.005 200.081 115.397 200.638 112.674 201.159C98.6025 203.789 87.9102 202.941 80.5965 198.615C76.8926 196.192 74.5408 193.071 73.5414 189.253C73.3457 188.505 73.2041 187.723 73.1168 186.907C72.3631 180.815 75.625 175.525 82.9025 171.037C90.1696 166.511 101.464 162.428 116.785 158.79L120.17 157.987C117.426 149.272 114.325 143.047 110.866 139.311C107.408 135.575 104.244 133.609 101.375 133.412C98.5455 133.206 96.1808 133.328 94.2805 133.779C92.6573 134.165 91.071 134.771 89.5216 135.599C86.1266 137.409 83.1411 139.497 80.5651 141.865C78.0183 144.184 76.137 146.073 74.9211 147.533C73.4985 149.166 71.8371 150.209 69.9368 150.66C67.8386 151.158 65.8312 150.799 63.9147 149.582C62.1565 148.327 61.025 146.735 60.5201 144.806C59.9741 142.72 60.3358 140.648 61.6054 138.59C63.3745 135.871 66.0826 132.802 69.7298 129.386C73.4165 125.96 77.1605 123.315 80.9616 121.451C84.7628 119.587 88.0094 118.335 90.7015 117.696C93.7103 116.982 96.8565 116.632 100.14 116.646C108.506 116.96 115.113 119.467 119.96 124.17C124.846 128.863 128.618 134.678 131.275 141.615C133.921 148.513 136.187 155.563 138.073 162.767L138.614 164.833C140.302 171.122 142.184 177.511 144.261 184L144.354 184.355C144.869 186.323 144.718 188.157 143.902 189.856C142.997 191.701 141.532 193.011 139.505 193.784L138.927 193.984C136.743 194.796 133.835 195.737 130.205 196.808C126.585 197.918 123.35 198.812 120.499 199.489ZM115.515 184.303C118.92 183.495 122.69 182.474 126.824 181.242C125.995 178.554 125.215 175.896 124.485 173.268C112.262 176.212 103.607 178.811 98.5202 181.064C93.4332 183.317 90.4532 184.944 89.58 185.946C90.4472 186.367 92.2954 186.681 95.1247 186.887C97.9436 187.054 101.255 186.853 105.059 186.285C108.902 185.706 112.388 185.046 115.515 184.303Z" fill="#D6DC82"/>
<path d="M492.46 184.41C491.641 184.049 490.122 183.222 487.901 181.931C485.718 180.656 483.35 178.877 480.798 176.595C478.245 174.313 475.96 171.482 473.942 168.102C471.924 164.722 470.606 160.74 469.988 156.156C469.424 151.551 470.023 146.326 471.782 140.48C472.849 137.173 474.05 134.147 475.385 131.403C476.613 128.878 477.948 126.601 479.388 124.57C484.846 116.978 491.249 111.626 498.597 108.514C502.92 106.6 507.181 105.369 511.381 104.823C515.636 104.257 519.615 104.213 523.316 104.691C527.035 105.133 530.179 105.921 532.748 107.054C538.22 109.47 542.497 112.714 545.58 116.786C548.681 120.822 550.452 125.315 550.892 130.265C551.369 135.231 550.362 140.276 547.869 145.398C546.961 147.264 545.517 148.56 543.535 149.286C541.554 150.011 539.633 149.963 537.772 149.142C535.874 148.304 534.64 146.981 534.072 145.175C533.522 143.332 533.561 141.394 534.189 139.359C535.492 134.823 535.154 130.918 533.174 127.644C531.25 124.35 528.687 121.997 525.486 120.583C524.444 120.123 523.32 119.738 522.114 119.428C517.254 118.172 511.452 118.989 504.71 121.879C497.86 124.99 492.619 130.277 488.987 137.741C487.99 139.79 487.107 142.022 486.339 144.439C484.811 149.809 484.744 154.313 486.139 157.952C487.534 161.59 489.45 164.391 491.885 166.355C494.339 168.283 496.701 169.748 498.972 170.75C500.61 171.473 502.206 171.956 503.762 172.198C507.538 172.709 510.889 172.233 513.817 170.77C516.745 169.306 519.044 167.276 520.715 164.68C521.827 162.86 523.158 161.425 524.708 160.376C526.314 159.307 528.109 159.01 530.093 159.486L531.292 159.949C532.781 160.606 533.953 161.59 534.808 162.901C535.835 164.599 536.007 166.43 535.322 168.395L534.416 170.395C531.319 176.762 526.753 181.591 520.719 184.884C512.563 189.284 503.144 189.126 492.46 184.41Z" fill="#A2D8F2"/>
<path d="M291.564 134.765L284.126 136.468C282.146 136.938 280.214 136.624 278.328 135.524C276.611 134.427 275.5 132.914 274.996 130.985L274.949 130.808C270.238 110.561 266.731 94.1888 264.427 81.691C262.607 72.0051 261.618 65.2574 261.462 61.4479C261.357 58.797 261.568 57.0327 262.095 56.1549C263.624 53.158 265.817 51.2574 268.676 50.4531C271.525 49.6094 273.425 49.0748 274.375 48.8492C278.373 47.8997 282.579 47.3401 286.992 47.1704C292.406 46.9718 296.763 47.1498 300.062 47.7045C304.356 48.5247 307.641 49.7514 309.919 51.3848C312.186 52.9787 313.649 54.471 314.307 55.8617C314.966 57.2524 315.413 58.4004 315.65 59.3058C315.836 60.0143 315.947 60.6779 315.982 61.2966C316.334 66.8158 313.536 71.8702 307.589 76.4599C310.684 77.5227 313.47 78.9307 315.948 80.6839C321.293 84.5575 324.779 89.604 326.407 95.8235C326.809 97.3587 327.108 98.9812 327.303 100.691C327.816 106.506 327.015 111.4 324.901 115.372C322.827 119.335 319.937 122.592 316.232 125.145C312.516 127.657 308.459 129.666 304.059 131.171C299.648 132.636 295.484 133.834 291.564 134.765ZM289.084 119.988C297.279 118.042 303.314 115.794 307.188 113.244C311.189 110.538 312.928 106.738 312.404 101.845C312.306 100.99 312.154 100.169 311.948 99.3821C311.207 96.5479 309.677 94.3188 307.36 92.6949C301.608 88.876 292.889 87.8525 281.2 89.6244C283.189 99.3121 285.401 109.532 287.837 120.284L289.084 119.988ZM278.194 74.283C283.423 72.4141 288.042 70.4603 292.05 68.4216C296.087 66.3342 298.861 64.4838 300.373 62.8705C297.617 61.978 293.893 61.6496 289.203 61.8852C284.503 62.0814 280.55 62.5602 277.343 63.3216L276.512 63.519C276.804 66.0835 277.365 69.6715 278.194 74.283Z" fill="#FFC364"/>
</svg>
