<svg width="509" height="457" viewBox="0 0 509 457" fill="none" xmlns="http://www.w3.org/2000/svg">
<path d="M42.6852 429.523L183.878 377.205L149.405 348.598L76.6302 377.205C65.6055 358.141 58.8878 336.084 42.6852 331.039C26.4826 325.993 37.7922 388.815 42.6852 429.523Z" fill="#273547"/>
<path d="M207.019 18.8877C183.907 35.2176 181.772 79.526 185.589 88.2281C163.114 84.7902 121.242 108.33 117.755 111.562C102.807 125.421 96.8704 144.007 94.8568 159.048C81.4975 161.412 60.6128 170.006 53.5113 179.031C50.3318 183.071 14.6035 209.65 25.0987 276.903C25.558 279.846 40.3642 322.24 67.3985 337.388C69.306 338.457 97.7185 356.619 133.128 347.272C163.341 386.593 201.443 383.37 206.277 382.511C211.112 381.651 236.173 379.825 261.405 352.966C266.317 358.123 276.543 368.093 287.908 375.313C299.993 382.99 326.568 384.803 337.734 384.552C363.374 381.093 380.564 370.156 401.555 345.446C401.555 345.446 425.901 347.231 440.674 343.19C456.336 338.906 477.355 323.1 477.355 323.1C505.236 294.522 505.067 243.194 504.479 236.594C500.239 189.001 464.421 157.974 414.807 153.247C410.248 122.091 385.865 92.0095 335.933 87.3898C335.933 87.3898 335.105 70.3836 331.692 60.2091C328.591 50.9701 320.243 38.0777 320.243 38.0777C300.841 12.2935 272.027 4.45088 255.573 4.02115C235.007 3.48398 214.914 13.3093 207.019 18.8877Z" fill="white"/>
<path d="M185.589 88.2281C189.405 96.9303 203.742 120.538 243.382 119.19C278.154 118.008 288.501 96.2058 287.378 85.8857C287.095 83.2931 284.883 63.0699 268.825 57.4158C231.296 44.2014 211.578 81.1587 240.943 98.3481M185.589 88.2281C181.772 79.526 183.907 35.2176 207.019 18.8877C214.914 13.3093 235.007 3.48398 255.573 4.02115C272.027 4.45088 300.841 12.2935 320.243 38.0777C320.243 38.0777 328.592 50.9701 331.692 60.2091C335.105 70.3836 335.933 87.3898 335.933 87.3898C385.865 92.0095 410.248 122.091 414.807 153.247C464.421 157.974 500.239 189.001 504.479 236.594C505.067 243.194 505.236 294.522 477.355 323.1C477.355 323.1 456.336 338.906 440.674 343.19C425.901 347.231 401.555 345.446 401.555 345.446C380.564 370.156 363.374 381.093 337.734 384.552C326.568 384.803 299.993 382.99 287.908 375.313C276.543 368.093 266.317 358.123 261.405 352.966C236.173 379.825 211.112 381.651 206.277 382.511C201.443 383.37 163.341 386.593 133.128 347.272C97.7185 356.619 69.306 338.457 67.3985 337.388C40.3642 322.24 25.558 279.846 25.0987 276.903C14.6035 209.65 50.3318 183.071 53.5113 179.031C60.6128 170.006 81.4975 161.412 94.8568 159.048C96.8704 144.007 102.807 125.421 117.755 111.562C121.242 108.33 163.114 84.7902 185.589 88.2281Z" stroke="#273547" stroke-width="8" stroke-linecap="round"/>
<path d="M246.828 338.288C314.998 350.845 393.785 317.687 408.137 271.9" stroke="#252F3B" stroke-width="10" stroke-linecap="round"/>
<path d="M246.828 338.288C314.998 350.845 393.785 317.687 408.137 271.9" stroke="#252F3B" stroke-width="10" stroke-linecap="round"/>
<path d="M161.219 328.403C84.961 336.803 -45.4139 316.544 25.2239 287.303" stroke="#252F3B" stroke-width="10" stroke-linecap="round"/>
<path d="M161.219 328.403C84.961 336.803 -45.4139 316.544 25.2239 287.303" stroke="#252F3B" stroke-width="10" stroke-linecap="round"/>
<rect x="200.731" y="293.716" width="63.1691" height="90.8577" rx="10" fill="#D6DC82"/>
<rect width="63.1801" height="90.8421" rx="10" transform="matrix(0.978608 -0.205732 0.204121 0.978946 135.791 290.894)" fill="#A2D8F2"/>
<circle cx="297.62" cy="241.859" r="39.8419" fill="white" stroke="#273547" stroke-width="5"/>
<circle cx="154.209" cy="241.859" r="39.8419" fill="white" stroke="#273547" stroke-width="5"/>
<circle cx="292.071" cy="250.002" r="28.2279" fill="#273547"/>
<circle cx="155.489" cy="250.002" r="28.2279" fill="#273547"/>
<path d="M171.564 455.954L311.763 384.699L272.451 360.633L200.604 398.564C186.79 380.982 177.065 359.858 159.64 356.922C142.215 353.987 161.396 415.999 171.564 455.954Z" fill="#273547"/>
</svg>
